<svg width="0" height="0">
    <symbol xmlns="http://www.w3.org/2000/svg" fill="none" stroke-width="1.5" stroke="currentColor" viewBox="0 0 24 24" id="account">
    <path stroke-linecap="round" stroke-linejoin="round" d="M17.982 18.725A7.488 7.488 0 0012 15.75a7.488 7.488 0 00-5.982 2.975m11.963 0a9 9 0 10-11.963 0m11.963 0A8.966 8.966 0 0112 21a8.966 8.966 0 01-5.982-2.275M15 9.75a3 3 0 11-6 0 3 3 0 016 0z"></path>
    </symbol>
    <symbol fill="none" xmlns="http://www.w3.org/2000/svg" viewBox="0 0 40 41" id="bell">
        <path d="M10.7464 13.7824C10.868 12.6878 10.9288 12.1405 11.0381 11.6742C11.8052 8.40201 14.5356 5.95814 17.8725 5.55715C18.348 5.5 18.8987 5.5 20 5.5V5.5C21.1013 5.5 21.652 5.5 22.1275 5.55715C25.4644 5.95814 28.1948 8.40201 28.9619 11.6742C29.0712 12.1405 29.132 12.6878 29.2536 13.7824L29.6733 17.5594C29.8066 18.7592 29.8732 19.3591 30.0269 19.9371C30.1169 20.2755 30.229 20.6077 30.3626 20.9314C30.5906 21.4843 30.9011 22.0019 31.5222 23.0371L33.1826 25.8043C33.9884 27.1473 34.3912 27.8187 34.104 28.326C33.8168 28.8333 33.0337 28.8333 31.4676 28.8333H8.53238C6.96627 28.8333 6.18322 28.8333 5.89599 28.326C5.60876 27.8187 6.01164 27.1473 6.81739 25.8043L8.47776 23.0371C9.09886 22.0019 9.40941 21.4843 9.63745 20.9314C9.77096 20.6077 9.88307 20.2755 9.97306 19.9371C10.1268 19.3591 10.1934 18.7592 10.3267 17.5594L10.7464 13.7824Z" stroke="black" stroke-width="4"></path>
        <path d="M13.3333 28.8333C13.3333 29.7088 13.5057 30.5757 13.8408 31.3846C14.1758 32.1934 14.6669 32.9283 15.2859 33.5474C15.905 34.1664 16.6399 34.6575 17.4487 34.9925C18.2576 35.3276 19.1245 35.5 20 35.5C20.8754 35.5 21.7423 35.3276 22.5512 34.9925C23.36 34.6575 24.0949 34.1664 24.714 33.5474C25.3331 32.9283 25.8241 32.1934 26.1592 31.3846C26.4942 30.5757 26.6666 29.7088 26.6666 28.8333" stroke="black" stroke-width="4" stroke-linecap="round"></path>
    </symbol>
    <symbol fill="none" xmlns="http://www.w3.org/2000/svg" viewBox="0 0 55 55" id="geo">
        <path fill-rule="evenodd" clip-rule="evenodd" d="M27.9033 41.0581C30.3907 39.8356 43.5417 32.7966 43.5417 20.625C43.5417 11.7654 36.3596 4.58331 27.5 4.58331C18.6405 4.58331 11.4584 11.7654 11.4584 20.625C11.4584 32.7966 24.6094 39.8356 27.0968 41.0581C27.3524 41.1837 27.6477 41.1837 27.9033 41.0581ZM27.5 27.5C31.297 27.5 34.375 24.4219 34.375 20.625C34.375 16.828 31.297 13.75 27.5 13.75C23.7031 13.75 20.625 16.828 20.625 20.625C20.625 24.4219 23.7031 27.5 27.5 27.5Z" fill="black"></path>
        <path d="M41.3925 37.8125C42.8005 38.8576 43.5417 40.0432 43.5417 41.25C43.5417 42.4568 42.8005 43.6424 41.3925 44.6875C39.9846 45.7326 37.9595 46.6005 35.5209 47.2039C33.0822 47.8073 30.3159 48.125 27.5 48.125C24.6841 48.125 21.9179 47.8073 19.4792 47.2039C17.0406 46.6005 15.0155 45.7326 13.6076 44.6875C12.1996 43.6424 11.4584 42.4568 11.4584 41.25C11.4584 40.0432 12.1996 38.8576 13.6075 37.8125" stroke="black" stroke-width="2" stroke-linecap="round"></path>
    </symbol>
    <symbol fill="none" xmlns="http://www.w3.org/2000/svg" viewBox="0 0 40 41" id="translate">
        <path d="M21.45 25.6166L17.2166 21.4333L17.2666 21.3833C20.1666 18.15 22.2333 14.4333 23.45 10.5H28.3333V7.16665H16.6666V3.83331H13.3333V7.16665H1.66663V10.4833H20.2833C19.1666 13.7 17.4 16.75 15 19.4166C13.45 17.7 12.1666 15.8166 11.15 13.8333H7.81663C9.03329 16.55 10.7 19.1166 12.7833 21.4333L4.29996 29.8L6.66663 32.1666L15 23.8333L20.1833 29.0166L21.45 25.6166ZM30.8333 17.1666H27.5L20 37.1666H23.3333L25.2 32.1666H33.1166L35 37.1666H38.3333L30.8333 17.1666ZM26.4666 28.8333L29.1666 21.6166L31.8666 28.8333H26.4666Z" fill="black"></path>
    </symbol>
    <symbol fill="none" xmlns="http://www.w3.org/2000/svg" viewBox="0 0 32 33" id="glass">
        <path d="M27.414 25.086L22.337 20.009C23.386 18.428 24 16.535 24 14.5C24 8.986 19.514 4.5 14 4.5C8.486 4.5 4 8.986 4 14.5C4 20.014 8.486 24.5 14 24.5C16.035 24.5 17.928 23.886 19.509 22.837L24.586 27.914C25.366 28.695 26.634 28.695 27.414 27.914C28.195 27.133 28.195 25.867 27.414 25.086ZM7 14.5C7 10.64 10.14 7.5 14 7.5C17.86 7.5 21 10.64 21 14.5C21 18.36 17.86 21.5 14 21.5C10.14 21.5 7 18.36 7 14.5Z" fill="black"></path>
    </symbol>
     <symbol fill="none" xmlns="http://www.w3.org/2000/svg" viewBox="0 0 50 50" id="setting">
    <path d="M10.4165 25L10.4165 8.33333" stroke="#33363F" stroke-width="2" stroke-linecap="round"></path>
    <path d="M39.5835 41.6667L39.5835 37.5" stroke="#33363F" stroke-width="2" stroke-linecap="round"></path>
    <path d="M10.4165 41.6667L10.4165 33.3334" stroke="#33363F" stroke-width="2" stroke-linecap="round"></path>
    <path d="M39.5835 25L39.5835 8.33333" stroke="#33363F" stroke-width="2" stroke-linecap="round"></path>
    <path d="M25 14.5833L25 8.33331" stroke="#33363F" stroke-width="2" stroke-linecap="round"></path>
    <path d="M25 41.6667L25 25" stroke="#33363F" stroke-width="2" stroke-linecap="round"></path>
    <circle cx="10.4167" cy="29.1667" r="4.16667" stroke="#33363F" stroke-width="2" stroke-linecap="round"></circle>
    <circle cx="25.0002" cy="18.75" r="4.16667" stroke="#33363F" stroke-width="2" stroke-linecap="round"></circle>
    <circle cx="39.5832" cy="31.25" r="4.16667" stroke="#33363F" stroke-width="2" stroke-linecap="round"></circle>
  </symbol>
  <symbol xmlns="http://www.w3.org/2000/svg" fill="currentColor" viewBox="0 0 24 24" id="settings">
    <path fill-rule="evenodd" d="M11.828 2.25c-.916 0-1.699.663-1.85 1.567l-.091.549a.798.798 0 01-.517.608 7.45 7.45 0 00-.478.198.798.798 0 01-.796-.064l-.453-.324a1.875 1.875 0 00-2.416.2l-.243.243a1.875 1.875 0 00-.2 2.416l.324.453a.798.798 0 01.064.796 7.448 7.448 0 00-.198.478.798.798 0 01-.608.517l-.55.092a1.875 1.875 0 00-1.566 1.849v.344c0 .916.663 1.699 1.567 1.85l.549.091c.281.047.508.25.608.517.06.162.127.321.198.478a.798.798 0 01-.064.796l-.324.453a1.875 1.875 0 00.2 2.416l.243.243c.648.648 1.67.733 2.416.2l.453-.324a.798.798 0 01.796-.064c.157.071.316.137.478.198.267.1.47.327.517.608l.092.55c.15.903.932 1.566 1.849 1.566h.344c.916 0 1.699-.663 1.85-1.567l.091-.549a.798.798 0 01.517-.608 7.52 7.52 0 00.478-.198.798.798 0 01.796.064l.453.324a1.875 1.875 0 002.416-.2l.243-.243c.648-.648.733-1.67.2-2.416l-.324-.453a.798.798 0 01-.064-.796c.071-.157.137-.316.198-.478.1-.267.327-.47.608-.517l.55-.091a1.875 1.875 0 001.566-1.85v-.344c0-.916-.663-1.699-1.567-1.85l-.549-.091a.798.798 0 01-.608-.517 7.507 7.507 0 00-.198-.478.798.798 0 01.064-.796l.324-.453a1.875 1.875 0 00-.2-2.416l-.243-.243a1.875 1.875 0 00-2.416-.2l-.453.324a.798.798 0 01-.796.064 7.462 7.462 0 00-.478-.198.798.798 0 01-.517-.608l-.091-.55a1.875 1.875 0 00-1.85-1.566h-.344zM12 15.75a3.75 3.75 0 100-7.5 3.75 3.75 0 000 7.5z" clip-rule="evenodd"></path>
  </symbol>
  <symbol fill="none" xmlns="http://www.w3.org/2000/svg" viewBox="0 0 20 20" id="disconnect">
        <path d="M14 15L19 10M19 10L14 5M19 10H7M7 1H5.8C4.11984 1 3.27976 1 2.63803 1.32698C2.07354 1.6146 1.6146 2.07354 1.32698 2.63803C1 3.27976 1 4.11984 1 5.8V14.2C1 15.8802 1 16.7202 1.32698 17.362C1.6146 17.9265 2.07354 18.3854 2.63803 18.673C3.27976 19 4.11984 19 5.8 19H7" stroke="currentColor" stroke-width="2" stroke-linecap="round" stroke-linejoin="round"></path>
    </symbol>

    <symbol fill="none" xmlns="http://www.w3.org/2000/svg" viewBox="0 0 20 20" id="enter">
        <path d="M13 1H14.2C15.8802 1 16.7202 1 17.362 1.32698C17.9265 1.6146 18.3854 2.07354 18.673 2.63803C19 3.27976 19 4.11985 19 5.8V14.2C19 15.8802 19 16.7202 18.673 17.362C18.3854 17.9265 17.9265 18.3854 17.362 18.673C16.7202 19 15.8802 19 14.2 19H13M8 5L13 10M13 10L8 15M13 10L1 10" stroke="currentColor" stroke-width="2" stroke-linecap="round" stroke-linejoin="round"></path>
    </symbol>
    <symbol version="1.0" xmlns="http://www.w3.org/2000/svg" preserveAspectRatio="xMidYMid meet" viewBox="0 0 30.000000 30.000000" id="telegram">
        <g transform="translate(0.000000,30.000000) scale(0.100000,-0.100000)" fill="#000000" stroke="none">
        <path d="M133 233 c-77 -26 -133 -50 -133 -57 0 -7 18 -21 40 -31 35 -16 40
            -23 46 -61 3 -25 10 -46 14 -49 4 -3 19 5 34 16 l26 21 31 -27 c17 -14 37 -24
            43 -22 12 4 68 225 61 245 -6 17 -15 15 -162 -35z m147 23 c0 -11 -49 -208
            -52 -212 -3 -2 -24 12 -47 32 l-42 37 47 48 c26 27 45 51 42 55 -4 3 -38 -11
            -76 -32 -66 -36 -71 -37 -102 -24 l-33 14 124 42 c128 44 139 47 139 40z
            m-142 -124 c-14 -15 -28 -34 -31 -42 -3 -8 -6 -1 -6 15 -1 23 6 34 27 46 37
            21 41 14 10 -19z m2 -52 c0 -5 -5 -10 -11 -10 -5 0 -7 5 -4 10 3 6 8 10 11 10
            2 0 4 -4 4 -10z"></path>
        </g>
  </symbol>
  <symbol version="1.0" xmlns="http://www.w3.org/2000/svg" preserveAspectRatio="xMidYMid meet" viewBox="0 0 30.000000 30.000000" id="vk">
    <g transform="translate(0.000000,30.000000) scale(0.100000,-0.100000)" fill="#000000" stroke="none">
        <path d="M0 225 c0 -28 49 -112 80 -139 40 -33 100 -37 100 -6 0 11 4 20 8 20
            5 0 17 -9 27 -20 20 -22 85 -28 85 -8 0 6 -11 25 -24 43 -25 32 -25 32 -5 61
            28 43 25 64 -10 64 -23 0 -34 -8 -52 -37 l-24 -38 -3 38 c-3 36 -4 37 -43 37
            l-39 0 5 -42 6 -43 -23 43 c-19 36 -26 42 -55 42 -23 0 -33 -5 -33 -15z m76
            -48 c11 -23 28 -43 37 -45 14 -3 17 5 17 42 0 34 4 46 15 46 9 0 15 -9 15 -24
            0 -31 9 -56 21 -56 5 0 21 18 35 40 15 22 33 40 40 40 19 0 17 -10 -6 -40 -26
            -33 -25 -39 7 -72 22 -23 24 -28 9 -28 -9 0 -32 11 -50 25 -33 25 -56 20 -56
            -12 0 -25 -46 -13 -77 20 -27 28 -63 86 -63 102 0 3 8 5 18 5 10 -1 25 -18 38
            -43z">
        </path>
    </g>
  </symbol>
   <symbol version="1.0" xmlns="http://www.w3.org/2000/svg" preserveAspectRatio="xMidYMid meet" viewBox="0 0 256.000000 257.000000" id="easy">
    <g transform="translate(0.000000,257.000000) scale(0.100000,-0.100000)" fill="#000000" stroke="none">
      <path d="M1107 2479 c-119 -17 -223 -96 -275 -208 -31 -66 -43 -223 -22 -286
16 -50 73 -111 116 -125 l34 -12 0 -119 c0 -134 11 -173 62 -226 17 -18 47
-38 65 -44 30 -10 33 -14 33 -50 l0 -39 -120 0 -120 0 0 233 c0 212 -2 235
-20 264 -35 58 -36 58 -380 58 -285 0 -319 -2 -343 -18 -55 -36 -58 -52 -56
-353 1 -266 2 -276 24 -320 l23 -46 -24 -35 c-29 -43 -31 -87 -4 -130 27 -44
51 -55 145 -60 l81 -6 28 -261 c31 -294 38 -328 73 -374 26 -34 89 -72 122
-72 44 0 51 -10 51 -74 0 -33 5 -68 10 -76 8 -13 94 -15 670 -15 576 0 662 2
670 15 5 8 10 43 10 76 0 64 7 74 51 74 33 0 96 38 122 72 35 46 42 80 73 374
l28 261 81 6 c94 5 118 16 145 60 25 41 25 83 0 124 -27 45 -52 55 -153 61
l-90 5 29 21 c104 75 144 136 151 231 5 73 -21 132 -80 179 -31 25 -49 31
-100 34 -42 3 -75 -1 -100 -11 -33 -14 -41 -14 -74 0 -25 10 -58 14 -100 11
-51 -3 -69 -9 -100 -34 -59 -47 -85 -106 -80 -179 7 -101 44 -154 172 -245 33
-24 61 -44 63 -45 1 -1 -13 -26 -33 -55 -19 -28 -35 -59 -35 -68 0 -9 -16 11
-36 44 -91 153 -264 264 -411 264 l-43 0 0 44 c0 41 2 45 33 55 66 22 127 111
127 185 0 33 2 35 43 41 54 9 82 27 103 66 13 27 15 64 12 248 -3 209 -4 218
-29 271 -57 118 -156 191 -285 210 -81 11 -255 11 -337 -1z m415 -103 c104
-51 158 -151 158 -290 l0 -84 -82 5 c-46 3 -93 12 -106 20 -23 14 -46 57 -56
105 -8 37 -31 40 -264 36 -158 -2 -194 -6 -202 -18 -5 -8 -10 -61 -10 -118 0
-100 0 -102 -21 -92 -40 22 -59 69 -59 152 0 120 37 199 120 260 60 43 84 47
290 45 167 -2 200 -5 232 -21z m-148 -321 c10 -38 72 -102 112 -115 l34 -12 0
-154 c0 -241 -3 -244 -240 -244 -246 0 -240 -8 -240 320 l0 230 164 0 164 0 6
-25z m300 -151 c3 -9 6 -35 6 -59 0 -63 -7 -75 -46 -75 l-34 0 0 75 0 75 34 0
c22 0 36 -6 40 -16z m-880 -80 c8 -20 8 -418 0 -438 -5 -14 -42 -16 -314 -16
-272 0 -309 2 -314 16 -8 20 -8 418 0 438 5 14 42 16 314 16 272 0 309 -2 314
-16z m1244 -249 c17 -14 35 -25 42 -25 7 0 25 11 42 25 56 47 150 28 184 -36
28 -55 6 -149 -47 -195 -42 -36 -168 -124 -179 -124 -11 0 -137 88 -179 124
-50 44 -75 139 -50 189 34 69 130 90 187 42z m-678 -234 c0 -55 -3 -106 -6
-115 -5 -12 -21 -16 -74 -16 -53 0 -69 4 -74 16 -3 9 -6 60 -6 115 l0 99 80 0
80 0 0 -99z m-560 -96 l0 -35 -283 0 c-301 0 -311 1 -337 51 -11 19 -5 19 305
19 l315 0 0 -35z m300 16 c-21 -40 -51 -51 -137 -51 l-83 0 0 35 0 35 115 0
c112 0 115 -1 105 -19z m535 -25 c115 -57 198 -160 230 -285 17 -63 16 -73
-11 -168 l-15 -51 -110 -4 c-84 -2 -112 -7 -119 -18 -5 -8 -10 -80 -10 -160 0
-132 2 -150 23 -190 36 -71 82 -101 177 -114 l80 -10 0 -33 0 -33 -600 0 -600
0 0 33 0 33 80 10 c95 13 141 43 178 114 20 40 22 58 22 190 0 80 -5 152 -10
160 -7 11 -35 16 -119 18 l-110 4 -15 51 c-8 29 -18 64 -21 79 -9 37 20 144
57 206 l32 52 102 0 c120 0 196 13 232 39 27 19 27 19 54 -4 43 -37 163 -44
221 -13 28 14 57 69 57 107 l0 34 61 -6 c42 -4 85 -17 134 -41z m-1121 -148
c29 -29 40 -61 105 -293 114 -404 107 -385 141 -385 42 0 45 25 15 126 -14 49
-25 92 -25 96 0 4 29 8 65 8 l65 0 0 -110 c0 -119 -10 -155 -52 -184 -28 -20
-262 -23 -302 -4 -51 22 -57 45 -92 357 -18 163 -36 306 -39 317 -6 28 -31 34
-136 34 -92 0 -107 8 -94 51 6 17 19 19 162 19 l155 0 32 -32z m143 -8 c-12
-22 -24 -34 -26 -27 -2 7 -10 24 -18 40 l-14 27 40 0 39 0 -21 -40z m1737 24
c4 -9 4 -25 1 -35 -6 -17 -17 -19 -93 -19 -106 0 -131 -6 -137 -34 -3 -11 -21
-154 -39 -317 -35 -312 -41 -335 -92 -357 -40 -19 -274 -16 -302 4 -42 29 -52
65 -52 184 l0 110 65 0 c36 0 65 -4 65 -8 0 -4 -11 -47 -25 -96 -30 -101 -27
-126 15 -126 34 0 27 -19 141 385 65 232 76 264 105 293 l32 32 155 0 c134 0
156 -2 161 -16z"></path>
      <path d="M1125 1901 c-9 -30 5 -51 35 -51 30 0 44 21 35 51 -4 13 -16 19 -35
19 -19 0 -31 -6 -35 -19z"></path>
      <path d="M1365 1901 c-9 -30 5 -51 35 -51 30 0 44 21 35 51 -4 13 -16 19 -35
19 -19 0 -31 -6 -35 -19z"></path>
      <path d="M1124 1736 c-8 -34 14 -76 55 -103 27 -18 48 -23 101 -23 53 0 74 5
101 23 66 44 79 127 19 127 -23 0 -31 -5 -36 -25 -8 -32 -32 -45 -84 -45 -52
0 -76 13 -84 45 -5 20 -13 25 -36 25 -23 0 -31 -5 -36 -24z"></path>
      <path d="M412 1704 c-28 -19 -52 -65 -52 -99 0 -34 24 -80 52 -99 12 -9 43
-16 68 -16 52 0 83 18 105 60 19 37 19 73 0 110 -22 42 -53 60 -105 60 -25 0
-56 -7 -68 -16z m103 -83 c9 -30 -5 -51 -35 -51 -30 0 -44 21 -35 51 4 13 16
19 35 19 19 0 31 -6 35 -19z"></path>
      <path d="M1070 1043 c-8 -3 -18 -11 -22 -17 -11 -16 -9 -268 2 -286 8 -13 45
-15 230 -15 185 0 222 2 230 15 13 20 13 270 0 290 -8 12 -45 15 -217 17 -114
1 -215 -1 -223 -4z m370 -158 l0 -75 -160 0 -160 0 0 75 0 75 160 0 160 0 0
-75z"></path>
      <path d="M2132 2065 c-52 -38 -66 -109 -32 -175 31 -60 121 -120 180 -120 59
0 149 60 180 120 25 49 25 96 0 137 -27 45 -53 56 -114 49 -62 -7 -67 -7 -136
0 -41 4 -61 1 -78 -11z m108 -100 c10 -29 16 -35 40 -35 24 0 30 6 40 35 10
29 16 35 41 35 22 0 30 -6 35 -24 9 -36 -20 -80 -70 -107 l-46 -24 -46 24
c-50 27 -79 71 -70 107 5 18 13 24 35 24 25 0 31 -6 41 -35z"></path>
    </g>
  </symbol>
  <symbol version="1.0" xmlns="http://www.w3.org/2000/svg" preserveAspectRatio="xMidYMid meet" viewBox="0 0 256.000000 257.000000" id="security">
    <g transform="translate(0.000000,257.000000) scale(0.100000,-0.100000)" fill="#000000" stroke="none">
      <path d="M1158 2541 c-120 -39 -202 -113 -255 -227 -25 -53 -28 -73 -31 -186
l-4 -127 -40 -6 c-23 -4 -54 -20 -74 -37 l-35 -31 -67 25 -67 25 -52 91 -51
91 20 40 c28 56 18 103 -32 153 -31 32 -44 38 -79 38 -50 0 -91 -20 -120 -56
-41 -52 -19 -163 39 -194 11 -6 40 -14 63 -18 40 -7 43 -10 98 -107 l56 -100
87 -34 86 -33 0 -44 0 -44 -102 0 -102 0 -37 36 c-32 32 -36 39 -29 69 8 37
-8 95 -36 126 -47 52 -149 46 -198 -11 -37 -45 -43 -90 -17 -142 28 -59 67
-81 135 -76 51 3 56 1 99 -39 l47 -43 120 0 120 0 0 -70 0 -70 -133 0 -133 0
-22 30 c-54 72 -151 80 -209 17 -42 -46 -51 -94 -27 -144 51 -102 187 -109
242 -13 l17 30 130 -2 130 -3 3 -72 3 -73 -121 0 -120 0 -47 -42 c-43 -41 -48
-43 -99 -40 -67 5 -107 -17 -135 -75 -51 -105 47 -218 159 -185 21 7 47 21 56
31 28 31 44 89 36 126 -7 30 -3 37 29 69 l37 36 102 0 102 0 0 -48 0 -47 -87
-30 -86 -30 -56 -100 c-55 -97 -58 -100 -96 -106 -82 -11 -125 -60 -125 -140
0 -118 146 -174 227 -86 43 48 51 95 25 148 l-20 40 51 92 52 91 70 22 70 22
26 -24 c39 -37 79 -44 246 -44 l153 0 0 -95 c0 -52 -2 -95 -5 -95 -2 0 -29 31
-60 70 -63 78 -96 100 -154 100 -74 0 -129 -75 -112 -152 12 -50 80 -187 172
-343 121 -206 132 -234 137 -340 2 -50 8 -98 14 -107 8 -17 35 -18 338 -18
180 0 335 3 344 6 12 5 16 20 16 64 0 45 8 74 34 131 47 100 67 205 73 389 4
140 3 158 -14 189 -26 47 -77 73 -129 68 -37 -4 -43 -1 -58 23 -21 37 -79 64
-125 57 -32 -4 -39 -1 -53 23 l-16 28 99 4 c91 3 102 6 143 35 l45 32 68 -23
68 -23 52 -91 51 -91 -20 -40 c-26 -53 -18 -100 25 -148 81 -88 227 -32 227
86 0 80 -43 129 -125 140 -38 6 -41 9 -96 106 l-56 100 -86 30 -87 30 0 47 0
48 102 0 102 0 37 -36 c32 -32 36 -39 29 -69 -8 -37 8 -95 36 -126 9 -10 35
-24 56 -31 112 -33 210 80 159 185 -28 58 -68 80 -135 75 -51 -3 -56 -1 -99
40 l-47 42 -120 0 -120 0 0 75 0 75 133 0 132 0 17 -30 c55 -96 191 -89 242
13 24 50 15 98 -27 144 -58 63 -155 55 -209 -17 l-22 -30 -133 0 -133 0 0 70
0 70 120 0 121 0 47 44 c45 42 49 44 96 39 65 -8 109 16 136 73 37 76 0 161
-81 185 -46 14 -105 1 -133 -30 -28 -31 -44 -89 -36 -126 7 -30 3 -37 -29 -69
l-37 -36 -102 0 -102 0 0 44 0 44 86 33 87 34 56 100 c55 97 58 100 98 107 23
4 52 12 63 18 58 31 80 142 39 194 -29 36 -70 56 -120 56 -35 0 -48 -6 -79
-38 -50 -50 -60 -97 -32 -153 l20 -40 -51 -91 -52 -91 -67 -25 -67 -24 -31 26
c-18 14 -52 31 -76 37 l-44 11 0 72 c0 222 -75 363 -235 442 -94 46 -205 56
-297 25z m267 -100 c64 -32 115 -82 148 -146 21 -43 37 -136 37 -222 l0 -73
-50 0 -50 0 0 91 c0 51 -5 109 -12 130 -15 52 -73 117 -122 140 -57 26 -148
25 -203 -2 -90 -44 -133 -132 -133 -276 l0 -83 -46 0 -46 0 4 123 c3 103 7
129 27 167 88 171 276 235 446 151z m-1001 -153 c21 -30 20 -44 -4 -68 -24
-24 -53 -26 -74 -4 -19 18 -21 65 -4 82 20 20 65 14 82 -10z m1794 10 c17 -17
15 -64 -4 -82 -21 -22 -50 -20 -74 4 -24 24 -25 38 -4 68 17 24 62 30 82 10z
m-858 -20 c54 -38 70 -79 70 -185 l0 -93 -155 0 -155 0 0 87 c0 102 22 159 73
192 45 29 123 28 167 -1z m-1034 -336 c6 -4 16 -16 22 -28 28 -54 -57 -103
-92 -52 -21 30 -20 44 4 68 21 21 47 25 66 12z m1974 -12 c24 -24 25 -38 4
-68 -18 -26 -65 -30 -84 -7 -18 22 -15 66 6 82 25 19 51 16 74 -7z m-549 -39
l29 -29 0 -367 0 -367 -29 -29 -29 -29 -156 0 -156 0 0 154 c0 85 -5 167 -10
182 -9 22 -7 31 8 48 48 53 59 133 27 200 -47 98 -189 126 -272 53 -76 -67
-84 -171 -19 -257 8 -10 9 -70 6 -195 l-5 -180 -161 0 c-145 0 -164 2 -183 19
-21 19 -21 26 -21 401 0 351 1 383 18 397 9 9 24 18 32 21 8 3 212 6 453 6
l439 1 29 -29z m-412 -248 c38 -36 45 -70 23 -113 -17 -34 -17 -34 -85 -33
-79 2 -96 15 -97 76 0 29 7 45 29 68 40 39 89 40 130 2z m-1005 -106 c11 -8
19 -26 19 -42 0 -57 -74 -74 -102 -24 -29 53 34 102 83 66z m1973 -13 c15 -24
15 -29 2 -53 -28 -50 -101 -33 -101 24 0 55 68 75 99 29z m-993 -126 c14 -19
16 -71 16 -365 l0 -343 27 -6 c43 -11 53 15 53 131 0 106 7 125 45 125 45 0
50 -12 55 -152 5 -130 6 -133 28 -136 42 -6 52 14 52 102 0 87 8 106 45 106
40 0 54 -29 57 -120 3 -83 4 -85 29 -88 34 -4 47 14 51 68 3 38 7 46 30 54 22
8 32 6 48 -9 17 -16 20 -30 20 -114 0 -53 -5 -136 -11 -186 -10 -88 -50 -227
-71 -252 -8 -10 -74 -13 -296 -11 l-284 3 -19 60 c-10 33 -38 94 -62 135 -153
264 -182 317 -208 380 -32 75 -28 110 11 110 35 0 48 -12 141 -131 96 -124
125 -143 149 -100 6 13 10 150 10 378 0 266 3 362 12 371 19 19 55 14 72 -10z
m-968 -277 c25 -49 -26 -98 -74 -72 -30 16 -37 48 -17 77 22 33 74 31 91 -5z
m1960 4 c28 -44 -9 -94 -61 -81 -24 6 -41 38 -36 66 9 46 70 56 97 15z m-1877
-366 c13 -24 13 -29 -2 -53 -19 -28 -63 -36 -85 -14 -18 18 -15 75 6 87 28 18
65 8 81 -20z m1782 21 c23 -13 26 -71 5 -89 -24 -20 -69 -9 -85 20 -13 24 -13
29 2 53 18 27 45 33 78 16z m-451 -675 c0 -13 -37 -15 -275 -15 -238 0 -275 2
-275 15 0 13 37 15 275 15 238 0 275 -2 275 -15z"></path>
    </g>
  </symbol>
  <symbol version="1.0" xmlns="http://www.w3.org/2000/svg" preserveAspectRatio="xMidYMid meet" viewBox="0 0 256.000000 257.000000" id="fast">
    <g transform="translate(0.000000,257.000000) scale(0.100000,-0.100000)" fill="#000000" stroke="none">
      <path d="M1142 2348 c-17 -17 -16 -212 1 -226 6 -6 26 -12 42 -14 28 -3 30 -6
33 -51 2 -32 -1 -48 -10 -51 -119 -35 -198 -65 -251 -96 -47 -27 -68 -35 -76
-27 -16 16 -13 30 9 50 29 24 25 44 -17 96 -53 64 -71 81 -87 81 -15 0 -206
-154 -219 -177 -10 -16 6 -44 62 -110 38 -46 62 -53 98 -28 18 13 22 13 33 0
13 -16 9 -24 -51 -93 l-36 -42 -104 0 c-57 0 -109 -4 -115 -8 -17 -11 -22 -35
-12 -54 7 -15 23 -18 94 -18 65 0 85 -3 81 -12 -3 -7 -15 -37 -27 -65 l-23
-53 -131 0 c-136 0 -156 -5 -156 -42 0 -29 34 -38 150 -38 l112 0 -5 -32 c-3
-18 -9 -54 -13 -80 l-6 -48 -183 0 c-154 0 -186 -3 -199 -16 -19 -18 -19 -20
-6 -45 10 -18 23 -19 199 -19 l188 0 15 -92 c9 -51 19 -101 23 -110 6 -16 -5
-18 -125 -20 -114 -3 -134 -6 -144 -20 -8 -13 -8 -23 0 -35 10 -15 32 -19 157
-23 l147 -5 44 -77 44 -78 -68 0 c-91 0 -127 -33 -82 -73 15 -14 40 -17 120
-17 l102 0 71 -59 c87 -73 223 -145 324 -171 42 -11 124 -22 183 -26 83 -5
118 -12 157 -30 78 -37 153 -47 330 -42 125 4 167 8 192 21 43 23 65 58 62 99
-1 18 5 48 15 67 12 23 17 47 13 72 -3 25 0 42 10 52 9 9 18 38 21 66 l5 51
129 0 c124 0 130 1 153 25 35 35 36 121 1 162 l-24 28 -279 5 -278 5 40 24
c119 71 158 169 95 233 -27 26 -36 29 -73 25 -40 -4 -173 -57 -282 -112 -27
-14 -80 -50 -117 -80 l-67 -54 -82 -3 c-65 -2 -84 -7 -93 -20 -23 -36 4 -52
101 -62 l90 -8 91 71 c87 69 104 78 360 188 20 9 14 -42 -8 -62 -11 -10 -41
-32 -68 -49 -53 -35 -85 -87 -73 -119 5 -12 20 -31 35 -42 26 -19 42 -20 299
-21 l272 0 3 -27 3 -27 -209 0 c-190 0 -210 -2 -225 -18 -38 -41 -11 -74 67
-82 43 -4 51 -8 51 -25 0 -18 -8 -21 -70 -25 -81 -6 -95 -12 -95 -45 0 -31 26
-45 84 -45 42 0 46 -2 46 -25 0 -25 -1 -25 -79 -25 -59 0 -84 -4 -95 -16 -39
-39 1 -74 86 -74 61 0 77 -10 51 -31 -12 -11 -55 -14 -172 -14 -189 0 -237 7
-293 45 -41 28 -48 30 -149 30 -173 0 -308 45 -451 150 -129 95 -246 274 -284
435 -23 99 -20 259 6 360 121 475 644 713 1085 496 145 -72 265 -192 340 -342
42 -83 62 -151 77 -268 14 -101 30 -127 66 -105 14 10 17 26 16 93 -2 176 -81
357 -230 532 -12 13 -12 18 0 35 14 18 15 18 33 1 36 -32 64 -22 116 42 26 32
47 68 47 79 0 25 -193 192 -221 192 -22 0 -119 -119 -119 -147 0 -12 9 -28 21
-36 17 -13 19 -19 10 -36 -14 -26 -16 -26 -49 -2 -50 35 -131 71 -214 95 l-83
24 -3 51 -3 51 33 0 c19 0 39 5 46 12 16 16 16 210 0 226 -17 17 -439 17 -456
0z m388 -113 l0 -55 -162 2 -163 3 -3 39 c-6 68 -10 66 168 66 l160 0 0 -55z
m-80 -170 l0 -45 -80 0 -80 0 0 45 0 45 80 0 80 0 0 -45z m-651 -79 c16 -20
-95 -112 -115 -95 -21 17 -18 22 37 67 57 46 62 48 78 28z m1226 -27 c58 -48
61 -52 41 -69 -13 -10 -25 -4 -71 35 -44 38 -53 50 -44 61 16 20 19 19 74 -27z"></path>
      <path d="M1225 1856 c-505 -116 -720 -698 -412 -1113 56 -75 148 -153 229
-194 63 -32 95 -34 111 -8 17 27 1 46 -75 85 -216 114 -352 371 -320 609 19
147 72 260 168 360 133 140 336 212 522 185 147 -21 257 -76 362 -180 74 -75
125 -162 156 -270 23 -80 42 -102 71 -84 26 17 21 95 -12 177 -80 199 -240
349 -440 413 -99 32 -267 41 -360 20z"></path>
      <path d="M1348 1649 c-16 -9 -18 -29 -18 -188 l0 -177 -29 -22 c-59 -44 -62
-130 -5 -183 39 -37 112 -34 153 5 55 53 49 141 -14 182 l-25 16 0 179 c0 166
-1 179 -19 189 -23 12 -22 12 -43 -1z m47 -479 c0 -18 -6 -26 -23 -28 -13 -2
-25 3 -28 12 -10 26 4 48 28 44 17 -2 23 -10 23 -28z"></path>
    </g>
  </symbol>
    <symbol version="1.0" xmlns="http://www.w3.org/2000/svg" preserveAspectRatio="xMidYMid meet" viewBox="0 0 51.000000 50.000000" id="home">
    <g transform="translate(0.000000,50.000000) scale(0.100000,-0.100000)" fill="#000000" stroke="none">
      <path d="M174 358 c-74 -64 -73 -63 -74 -169 0 -136 -2 -134 155 -134 157 0
155 -2 155 134 0 53 -4 101 -8 107 -4 6 -31 32 -61 58 -72 61 -101 61 -167 4z
m122 10 c16 -12 44 -35 62 -52 l32 -30 0 -102 c0 -107 -3 -114 -51 -114 -16 0
-19 7 -19 53 0 64 -11 77 -65 77 -54 0 -65 -13 -65 -77 0 -46 -3 -53 -19 -53
-48 0 -51 7 -51 114 l0 102 33 30 c47 44 88 74 102 74 7 0 25 -10 41 -22z m4
-243 l0 -55 -45 0 -45 0 0 55 0 55 45 0 45 0 0 -55z"></path>
    </g>
  </symbol>
  <symbol version="1.0" xmlns="http://www.w3.org/2000/svg" preserveAspectRatio="xMidYMid meet" viewBox="0 0 51.000000 50.000000" id="offer">
    <g transform="translate(0.000000,50.000000) scale(0.100000,-0.100000)" fill="#000000" stroke="none">
      <path d="M142 467 l-32 -33 0 -129 c0 -100 -3 -126 -12 -117 -20 20 -76 15
-88 -7 -13 -25 -13 -107 0 -132 13 -23 62 -26 79 -5 10 12 25 10 98 -15 48
-16 92 -29 99 -29 14 0 214 158 214 170 0 19 -29 31 -49 21 -34 -19 -41 -13
-41 37 0 44 4 52 45 92 50 49 53 59 27 84 -18 15 -20 15 -37 -4 -28 -31 -34
-25 -37 38 l-3 57 -115 3 -115 3 -33 -34z m258 -46 c0 -55 -3 -63 -36 -98 -19
-21 -42 -50 -50 -65 -13 -25 -20 -27 -87 -31 -67 -3 -65 -3 24 -5 71 -1 100 2
115 13 29 22 34 18 34 -29 0 -47 -12 -65 -33 -48 -7 6 -63 19 -125 28 l-112
18 0 112 0 113 28 3 c19 2 28 9 30 26 3 21 7 22 108 22 l104 0 0 -59z m-230
29 c0 -5 -4 -10 -10 -10 -5 0 -10 5 -10 10 0 6 5 10 10 10 6 0 10 -4 10 -10z
m316 -77 c-7 -7 -26 7 -26 19 0 6 6 6 15 -2 9 -7 13 -15 11 -17z m-31 -14 c11
-17 -1 -21 -15 -4 -8 9 -8 15 -2 15 6 0 14 -5 17 -11z m-22 -23 c3 -7 -11 -30
-32 -50 -29 -28 -40 -33 -49 -24 -9 9 -4 20 25 50 41 42 48 45 56 24z m-353
-221 l0 -65 -30 0 -30 0 0 65 0 65 30 0 30 0 0 -65z m172 55 c29 -6 63 -13 76
-16 50 -10 17 -24 -60 -25 -57 0 -75 -3 -57 -9 14 -4 37 -15 51 -24 26 -17 28
-16 117 35 90 51 131 60 76 17 -15 -12 -57 -46 -93 -75 -35 -29 -72 -53 -80
-53 -9 0 -53 12 -99 27 l-83 27 0 47 c0 37 4 49 18 52 31 8 80 7 134 -3z m50
-62 c-9 -9 -15 -9 -24 0 -9 9 -7 12 12 12 19 0 21 -3 12 -12z"></path>
      <path d="M160 390 c0 -6 42 -10 105 -10 63 0 105 4 105 10 0 6 -42 10 -105 10
-63 0 -105 -4 -105 -10z"></path>
      <path d="M160 350 c0 -5 7 -10 15 -10 8 0 15 5 15 10 0 6 -7 10 -15 10 -8 0
-15 -4 -15 -10z"></path>
      <path d="M210 350 c0 -6 32 -10 75 -10 43 0 75 4 75 10 0 6 -32 10 -75 10 -43
0 -75 -4 -75 -10z"></path>
      <path d="M160 310 c0 -5 18 -10 41 -10 24 0 38 4 34 10 -3 6 -22 10 -41 10
-19 0 -34 -4 -34 -10z"></path>
      <path d="M260 310 c0 -5 14 -10 30 -10 17 0 30 5 30 10 0 6 -13 10 -30 10 -16
0 -30 -4 -30 -10z"></path>
      <path d="M160 270 c0 -6 29 -10 66 -10 41 0 63 4 59 10 -3 6 -33 10 -66 10
-33 0 -59 -4 -59 -10z"></path>
      <path d="M40 160 c0 -5 5 -10 10 -10 6 0 10 5 10 10 0 6 -4 10 -10 10 -5 0
-10 -4 -10 -10z"></path>
    </g>
  </symbol>
   <symbol version="1.0" xmlns="http://www.w3.org/2000/svg" preserveAspectRatio="xMidYMid meet" viewBox="0 0 51.000000 50.000000" id="history">
    <g transform="translate(0.000000,50.000000) scale(0.100000,-0.100000)" fill="#000000" stroke="none">
      <path d="M377 353 c-4 -3 -7 -66 -7 -140 l0 -133 50 0 50 0 0 140 0 140 -43 0
c-24 0 -47 -3 -50 -7z m78 -133 l0 -125 -32 -3 -33 -3 0 131 0 131 33 -3 32
-3 0 -125z"></path>
      <path d="M40 201 l0 -121 50 0 51 0 -3 118 -3 117 -47 3 -48 3 0 -120z m80 -7
l0 -105 -32 3 -33 3 -3 103 -3 102 36 0 35 0 0 -106z"></path>
      <path d="M210 160 l0 -80 45 0 45 0 0 80 0 80 -45 0 -45 0 0 -80z m80 -5 l0
-65 -35 0 -35 0 0 65 0 65 35 0 35 0 0 -65z"></path>
    </g>
  </symbol>
  <symbol version="1.0" xmlns="http://www.w3.org/2000/svg" preserveAspectRatio="xMidYMid meet" viewBox="0 0 36.000000 40.000000" id="field">
    <g transform="translate(0.000000,40.000000) scale(0.100000,-0.100000)" fill="#000000" stroke="none">
      <path d="M19 379 c-19 -19 -20 -30 -17 -183 2 -120 7 -167 17 -179 11 -14 36
-17 162 -17 192 0 182 -12 177 208 -2 116 -7 163 -17 175 -11 14 -36 17 -157
17 -132 0 -146 -2 -165 -21z m311 -18 c13 -26 13 -296 0 -322 -10 -17 -23 -19
-150 -19 -127 0 -140 2 -150 19 -13 26 -13 296 0 322 10 17 23 19 150 19 127
0 140 -2 150 -19z"></path>
      <path d="M135 361 c-119 -52 -80 -231 50 -231 66 0 122 70 111 138 -11 70 -98
120 -161 93z m111 -45 c37 -37 43 -70 20 -115 -47 -90 -186 -50 -186 55 0 16
12 38 34 60 46 46 86 46 132 0z"></path>
      <path d="M166 298 c-9 -35 -8 -38 14 -38 11 0 20 3 20 8 0 19 -13 52 -20 52
-4 0 -10 -10 -14 -22z"></path>
      <path d="M122 298 c-17 -17 -15 -38 3 -38 9 0 15 9 15 25 0 29 -1 30 -18 13z"></path>
      <path d="M220 286 c0 -16 5 -26 15 -26 8 0 15 6 15 14 0 7 -7 19 -15 26 -13
11 -15 8 -15 -14z"></path>
      <path d="M110 226 c0 -7 7 -19 15 -26 13 -11 15 -8 15 14 0 16 -5 26 -15 26
-8 0 -15 -6 -15 -14z"></path>
      <path d="M165 213 c11 -46 19 -46 30 0 6 23 4 27 -15 27 -19 0 -21 -4 -15 -27z"></path>
      <path d="M227 233 c-4 -3 -7 -15 -7 -26 0 -16 3 -17 15 -7 8 7 15 19 15 26 0
15 -12 19 -23 7z"></path>
      <path d="M70 105 c-7 -8 -10 -22 -6 -30 8 -22 224 -22 232 0 4 8 1 22 -6 30
-18 22 -202 22 -220 0z m210 -15 c0 -6 -40 -10 -100 -10 -60 0 -100 4 -100 10
0 6 40 10 100 10 60 0 100 -4 100 -10z"></path>
    </g>
  </symbol>
  <symbol version="1.0" xmlns="http://www.w3.org/2000/svg" preserveAspectRatio="xMidYMid meet" viewBox="0 0 50.000000 50.000000" id="Filter">
    <g transform="translate(0.000000,50.000000) scale(0.100000,-0.100000)" fill="#000000" stroke="none">
      <path d="M102 346 c-2 -70 -5 -81 -27 -102 -31 -29 -31 -35 -1 -71 14 -16 26
-45 29 -64 4 -34 4 -34 5 6 2 28 8 44 22 53 27 16 27 68 0 82 -16 9 -20 23
-23 93 l-3 82 -2 -79z m26 -118 c16 -16 15 -23 -4 -42 -12 -12 -20 -13 -35 -6
-19 10 -26 40 -12 53 10 11 38 8 51 -5z"></path>
      <path d="M240 395 c0 -14 -9 -34 -20 -45 -11 -11 -20 -28 -20 -38 0 -11 9 -27
20 -37 17 -16 20 -31 20 -107 0 -52 4 -88 10 -88 6 0 10 36 10 88 0 76 3 91
20 107 11 10 20 26 20 37 0 10 -9 27 -20 38 -11 11 -20 31 -20 45 0 14 -4 25
-10 25 -5 0 -10 -11 -10 -25z m38 -88 c-2 -16 -10 -22 -28 -22 -28 0 -39 27
-20 50 18 21 52 1 48 -28z"></path>
      <path d="M392 333 c-2 -81 -4 -94 -22 -103 -13 -7 -20 -21 -20 -40 0 -19 7
-34 20 -42 12 -8 21 -25 21 -43 l2 -30 4 28 c2 15 15 38 29 52 30 30 30 40 -1
69 -22 20 -25 32 -28 112 l-3 89 -2 -92z m32 -136 c9 -14 7 -21 -7 -32 -33
-24 -71 11 -46 42 15 18 39 13 53 -10z"></path>
    </g>
  </symbol>
  <symbol version="1.0" xmlns="http://www.w3.org/2000/svg" preserveAspectRatio="xMidYMid meet" viewBox="0 0 46.000000 46.000000" id="notification">
    <g transform="translate(0.000000,46.000000) scale(0.100000,-0.100000)" fill="#000000" stroke="none">
      <path d="M150 382 c-22 -22 -30 -42 -35 -88 -4 -32 -18 -78 -31 -101 -32 -56
-31 -63 15 -63 34 0 42 -5 59 -34 36 -62 114 -59 147 4 13 26 21 30 55 30 47
0 49 8 16 64 -14 24 -27 67 -31 103 -9 82 -41 113 -117 113 -41 0 -54 -5 -78
-28z m142 -12 c20 -15 27 -32 33 -77 3 -32 17 -77 30 -100 l24 -43 -149 0
-149 0 24 43 c13 23 27 68 30 100 9 69 36 97 95 97 22 0 48 -8 62 -20z m-4
-257 c-2 -10 -15 -24 -31 -33 -24 -13 -30 -13 -54 0 -16 9 -29 23 -31 33 -3
15 5 17 58 17 53 0 61 -2 58 -17z"></path>
    </g>
  </symbol>
  <symbol version="1.0" xmlns="http://www.w3.org/2000/svg" preserveAspectRatio="xMidYMid meet" viewBox="0 0 41.000000 40.000000" id="blog">
    <g transform="translate(0.000000,40.000000) scale(0.100000,-0.100000)" fill="#000000" stroke="none">
      <path d="M178 263 c-122 -124 -138 -144 -154 -195 -10 -32 -15 -60 -12 -63 2
-3 31 4 64 15 52 18 74 36 192 153 72 72 132 139 132 147 0 17 -60 80 -76 80
-5 0 -71 -62 -146 -137z m187 87 c29 -30 29 -30 9 -50 -20 -20 -20 -20 -53 14
-29 30 -32 38 -21 51 18 22 33 19 65 -15z m-28 -86 c-10 -10 -78 57 -70 69 3
5 22 -7 41 -27 20 -19 33 -39 29 -42z m-162 -44 c-44 -44 -84 -80 -90 -80 -5
0 28 38 75 85 46 46 86 82 89 79 3 -2 -31 -40 -74 -84z m111 49 c4 -6 -28 -45
-72 -90 -75 -75 -104 -94 -104 -67 0 13 149 168 162 168 4 0 10 -5 14 -11z
m-56 -114 c-46 -46 -86 -82 -89 -79 -3 2 33 43 79 89 46 46 86 82 89 79 3 -2
-33 -43 -79 -89z m-140 -50 c0 -8 9 -17 20 -20 30 -10 24 -33 -11 -40 -44 -10
-63 10 -48 52 10 32 39 37 39 8z m-40 -69 c0 -3 -4 -8 -10 -11 -5 -3 -10 -1
-10 4 0 6 5 11 10 11 6 0 10 -2 10 -4z"></path>
    </g>
  </symbol>
  <symbol version="1.0" xmlns="http://www.w3.org/2000/svg" preserveAspectRatio="xMidYMid meet" viewBox="0 0 45.000000 45.000000" id="phone">
    <g transform="translate(0.000000,45.000000) scale(0.100000,-0.100000)" fill="#000000" stroke="none">
      <path d="M86 380 c-20 -22 -36 -48 -36 -59 0 -10 23 -50 52 -90 55 -76 181
-181 218 -181 22 0 100 65 100 84 0 15 -62 76 -76 76 -6 0 -21 -11 -34 -25
-13 -14 -30 -25 -37 -25 -18 0 -113 95 -113 113 0 7 11 24 25 37 14 13 25 29
25 35 0 14 -62 75 -77 75 -6 0 -27 -18 -47 -40z"></path>
    </g>
  </symbol>
  <symbol version="1.0" xmlns="http://www.w3.org/2000/svg" preserveAspectRatio="xMidYMid meet" viewBox="0 0 40.000000 40.000000" id="email">
    <g transform="translate(0.000000,40.000000) scale(0.100000,-0.100000)" fill="#000000" stroke="none">
      <path d="M64 306 c-17 -13 -17 -16 -4 -29 8 -8 43 -29 76 -47 l62 -34 56 30
c31 16 66 37 78 47 23 17 23 18 4 32 -28 21 -244 21 -272 1z"></path>
      <path d="M50 175 c0 -93 3 -95 150 -95 147 0 150 2 150 95 0 41 -2 75 -4 75
-2 0 -35 -18 -73 -39 l-68 -39 -73 39 c-41 21 -75 39 -78 39 -2 0 -4 -34 -4
-75z"></path>
    </g>
  </symbol>
  <symbol xmlns="http://www.w3.org/2000/svg" viewBox="0 0 448 512" id="passport">
    <path d="M0 64C0 28.7 28.7 0 64 0H384c35.3 0 64 28.7 64 64V448c0 35.3-28.7 64-64 64H64c-35.3 0-64-28.7-64-64V64zM183 278.8c-27.9-13.2-48.4-39.4-53.7-70.8h39.1c1.6 30.4 7.7 53.8 14.6 70.8zm41.3 9.2l-.3 0-.3 0c-2.4-3.5-5.7-8.9-9.1-16.5c-6-13.6-12.4-34.3-14.2-63.5h47.1c-1.8 29.2-8.1 49.9-14.2 63.5c-3.4 7.6-6.7 13-9.1 16.5zm40.7-9.2c6.8-17.1 12.9-40.4 14.6-70.8h39.1c-5.3 31.4-25.8 57.6-53.7 70.8zM279.6 176c-1.6-30.4-7.7-53.8-14.6-70.8c27.9 13.2 48.4 39.4 53.7 70.8H279.6zM223.7 96l.3 0 .3 0c2.4 3.5 5.7 8.9 9.1 16.5c6 13.6 12.4 34.3 14.2 63.5H200.5c1.8-29.2 8.1-49.9 14.2-63.5c3.4-7.6 6.7-13 9.1-16.5zM183 105.2c-6.8 17.1-12.9 40.4-14.6 70.8H129.3c5.3-31.4 25.8-57.6 53.7-70.8zM352 192A128 128 0 1 0 96 192a128 128 0 1 0 256 0zM112 384c-8.8 0-16 7.2-16 16s7.2 16 16 16H336c8.8 0 16-7.2 16-16s-7.2-16-16-16H112z"></path>
  </symbol>
  <symbol version="1.0" xmlns="http://www.w3.org/2000/svg" preserveAspectRatio="xMidYMid meet" viewBox="0 0 512.000000 512.000000" id="age">
    <metadata>Created by potrace 1.16, written by Peter Selinger 2001-2019</metadata>
    <g transform="translate(0.000000,512.000000) scale(0.100000,-0.100000)" fill="#000000" stroke="none">
      <path d="M2305 5113 c-521 -62 -952 -236 -1340 -541 -101 -80 -315 -292 -400
-398 -234 -289 -407 -638 -495 -996 -57 -232 -65 -309 -65 -613 0 -294 6 -357
52 -565 179 -813 771 -1513 1540 -1819 322 -128 605 -181 963 -181 314 0 536
35 829 132 179 60 425 179 576 280 313 210 602 508 790 818 228 374 365 848
365 1260 0 137 -9 163 -66 201 -39 26 -126 26 -168 0 -57 -36 -67 -66 -77
-239 -4 -86 -15 -200 -24 -252 -60 -362 -205 -701 -428 -999 -92 -123 -315
-346 -438 -438 -322 -241 -707 -396 -1098 -443 -120 -14 -402 -14 -518 0 -401
49 -778 201 -1102 443 -123 92 -346 315 -438 438 -245 327 -397 708 -444 1111
-19 167 -7 495 25 661 158 827 757 1496 1560 1743 217 67 412 95 655 95 270 0
467 -32 724 -118 202 -67 588 -269 560 -293 -4 -4 -50 -12 -101 -18 -54 -7
-107 -19 -125 -29 -97 -57 -92 -220 7 -267 47 -22 84 -21 394 19 296 37 320
44 356 106 24 40 23 83 -7 415 -20 216 -26 256 -45 286 -58 93 -203 90 -263
-4 -19 -30 -20 -43 -15 -145 l6 -113 -97 64 c-318 208 -689 343 -1073 391
-113 14 -484 19 -575 8z"></path>
      <path d="M1200 3248 c-24 -13 -52 -34 -62 -48 -10 -14 -115 -279 -233 -590
-247 -648 -245 -639 -176 -713 39 -42 40 -42 110 -42 66 0 72 2 104 33 24 23
45 63 72 133 l37 99 228 0 228 0 28 -72 c45 -121 50 -132 83 -163 30 -27 38
-30 102 -30 70 0 71 0 110 42 69 74 71 65 -176 718 -159 422 -221 576 -242
598 -57 60 -137 73 -213 35z m139 -678 c28 -74 49 -136 47 -137 -2 -2 -51 -2
-108 -1 l-105 3 43 115 c51 135 63 164 68 159 3 -2 27 -65 55 -139z"></path>
      <path d="M2564 3251 c-250 -68 -445 -267 -510 -521 -22 -86 -22 -254 0 -340
38 -149 141 -306 259 -394 125 -92 241 -134 397 -143 190 -10 342 46 469 175
127 127 188 273 198 472 5 99 4 107 -18 139 -52 75 -55 76 -299 76 -206 0
-220 -1 -247 -21 -95 -70 -97 -199 -4 -261 30 -20 46 -23 138 -23 104 0 104 0
97 -22 -25 -83 -81 -152 -156 -194 -48 -26 -61 -29 -143 -28 -118 1 -184 26
-265 101 -103 95 -152 230 -130 355 25 137 106 243 227 301 63 30 76 32 173
32 104 0 106 0 190 -44 74 -38 91 -43 133 -38 27 2 61 13 75 24 59 43 79 136
44 203 -24 44 -115 101 -220 137 -106 36 -300 43 -408 14z"></path>
      <path d="M3781 3260 c-46 -11 -83 -40 -103 -81 -17 -31 -18 -82 -18 -623 0
-586 0 -588 22 -627 14 -25 37 -46 63 -59 38 -18 62 -20 306 -20 295 0 312 3
356 69 49 73 21 184 -57 223 -29 15 -63 18 -207 18 l-173 0 0 119 0 119 164 4
c148 3 167 5 192 24 45 33 67 70 71 121 5 59 -18 108 -66 140 -32 22 -44 23
-197 23 l-164 0 0 125 0 125 176 0 c198 0 229 8 264 65 26 42 27 125 3 167
-10 16 -34 39 -53 51 -33 21 -47 22 -290 24 -140 1 -270 -2 -289 -7z"></path>
    </g>
  </symbol>
  <symbol version="1.0" xmlns="http://www.w3.org/2000/svg" preserveAspectRatio="xMidYMid meet" viewBox="0 0 512.000000 512.000000" id="manager">
    <g transform="translate(0.000000,512.000000) scale(0.100000,-0.100000)" fill="#000000" stroke="none">
      <path d="M1967 5100 c-317 -54 -576 -274 -677 -577 -42 -127 -53 -256 -48
-563 4 -242 6 -259 30 -327 14 -40 49 -107 78 -149 78 -114 89 -154 100 -367
10 -188 24 -275 67 -412 57 -182 138 -318 263 -439 l81 -79 -3 -91 -3 -91
-145 -52 c-617 -220 -1261 -457 -1303 -480 -112 -60 -228 -205 -271 -338 -28
-89 -138 -784 -133 -842 11 -106 85 -210 185 -256 l47 -22 2325 0 2325 0 47
22 c98 46 175 152 184 255 6 58 -103 752 -132 843 -44 136 -161 280 -279 341
-57 30 -196 81 -1050 388 -192 70 -360 131 -372 136 -22 9 -23 16 -23 104 l0
95 83 83 c176 177 266 383 322 738 30 197 60 291 143 459 l67 135 3 363 c4
407 2 417 -66 547 -44 84 -118 162 -193 205 l-56 31 -1 59 c-2 133 -80 227
-225 273 -54 17 -105 18 -690 17 -348 -1 -654 -5 -680 -9z m1326 -176 c54 -18
97 -64 97 -102 0 -14 -5 -51 -12 -83 -15 -75 -1 -98 81 -128 113 -41 192 -121
230 -232 20 -59 21 -84 21 -365 0 -207 -4 -320 -12 -356 -13 -53 -13 -53 -19
82 -4 103 -10 149 -27 195 -42 115 -129 220 -233 282 -30 18 -165 72 -299 120
l-245 87 -100 0 c-98 0 -103 -1 -255 -59 l-155 -59 -255 -6 c-233 -5 -260 -8
-312 -29 -217 -85 -356 -285 -359 -516 -1 -50 -3 -63 -9 -45 -4 14 -8 162 -9
330 -1 347 4 381 70 519 33 67 58 102 128 171 73 75 100 94 181 133 83 40 132
54 240 71 14 2 291 4 616 5 516 1 596 -1 637 -15z m-246 -750 c120 -42 240
-87 266 -101 59 -30 121 -92 155 -158 l27 -50 3 -385 c3 -418 -3 -501 -54
-674 -62 -216 -177 -388 -324 -485 -25 -17 -83 -62 -130 -101 -136 -113 -235
-163 -364 -180 -108 -16 -192 0 -302 54 -109 54 -406 268 -465 334 -90 103
-167 267 -212 457 -20 85 -22 115 -22 530 l0 440 27 57 c33 70 106 145 173
178 48 24 61 25 300 31 273 6 256 3 470 83 172 65 183 64 452 -30z m43 -2142
l0 -38 -265 -177 -264 -177 -266 176 c-258 173 -265 178 -265 211 0 18 2 33 5
33 2 0 39 -23 82 -51 96 -62 205 -115 280 -134 75 -20 225 -19 316 1 87 19
253 98 322 153 28 22 51 40 53 40 1 1 2 -16 2 -37z m-905 -355 c132 -88 242
-161 244 -163 4 -4 -301 -424 -309 -424 -7 0 -375 669 -375 682 0 13 176 77
190 70 6 -3 118 -77 250 -165z m1190 95 c0 -17 -369 -682 -377 -680 -8 3 -298
396 -304 412 -2 6 109 86 247 177 l251 167 91 -33 c51 -18 92 -37 92 -43z
m-2040 -302 c-53 -107 -95 -204 -95 -220 0 -16 11 -41 24 -57 24 -28 26 -28
150 -31 l125 -4 -29 -59 c-58 -114 -87 -77 393 -516 232 -212 424 -390 425
-395 5 -12 -2005 -10 -2047 2 -44 12 -87 54 -101 95 -17 50 108 781 145 855
33 65 105 143 164 178 38 22 931 352 939 346 2 -1 -40 -88 -93 -194z m2825 28
c228 -82 436 -161 463 -176 26 -14 70 -49 98 -79 85 -90 95 -123 166 -543 36
-214 60 -387 57 -403 -9 -41 -60 -95 -102 -107 -45 -12 -2055 -14 -2050 -2 2
5 165 156 363 337 485 442 485 442 485 482 0 19 -13 60 -30 92 l-29 59 125 4
c124 3 126 3 150 31 13 16 24 41 24 57 0 16 -42 112 -95 219 -52 106 -95 194
-95 196 0 3 12 0 28 -6 15 -6 214 -78 442 -161z m-2265 -368 c152 -278 291
-530 307 -560 l31 -55 -49 46 c-27 25 -154 141 -281 258 l-233 212 50 99 c28
55 50 109 50 121 0 11 -13 34 -29 50 -29 29 -30 29 -150 29 -73 0 -121 4 -121
10 0 10 143 301 146 297 1 -1 126 -229 279 -507z m1754 213 c1 -10 -30 -13
-120 -13 -120 0 -121 0 -150 -29 -16 -16 -29 -39 -29 -50 0 -12 22 -66 50
-121 l50 -99 -238 -217 c-130 -120 -257 -236 -281 -258 l-43 -41 43 80 c24 45
163 298 309 563 l265 482 72 -143 c40 -78 72 -148 72 -154z m-995 -90 c4 -8
-10 -37 -34 -72 -23 -35 -40 -72 -40 -88 0 -15 21 -159 46 -319 l47 -291 -54
-97 c-30 -53 -56 -96 -59 -96 -3 0 -29 43 -58 95 l-53 95 45 286 c25 158 46
303 46 323 0 28 -11 52 -41 94 l-40 57 22 33 c13 17 36 49 52 70 l29 38 42
-58 c23 -32 45 -64 50 -70z m-292 -175 c5 -16 -44 -338 -51 -338 -8 0 -91 155
-91 169 0 13 122 181 131 181 4 0 9 -6 11 -12z m476 -73 c34 -46 62 -90 62
-97 -1 -24 -89 -173 -94 -158 -7 25 -46 285 -46 314 0 14 4 26 8 26 5 0 36
-38 70 -85z"></path>
    </g>
  </symbol>
  <symbol version="1.0" xmlns="http://www.w3.org/2000/svg" preserveAspectRatio="xMidYMid meet" viewBox="0 0 128.000000 129.000000" id="builder">
    <g transform="translate(0.000000,129.000000) scale(0.100000,-0.100000)" fill="#000000" stroke="none">
      <path d="M585 1261 c-3 -10 -26 -26 -52 -36 -26 -10 -67 -36 -91 -59 -40 -37
-92 -120 -92 -147 0 -6 -11 -20 -25 -31 -14 -11 -25 -30 -25 -42 0 -24 28 -56
48 -56 15 0 15 -15 1 -55 -16 -42 -4 -82 32 -114 16 -14 29 -32 29 -41 0 -8
11 -33 25 -55 29 -48 32 -75 7 -82 -10 -2 -26 -17 -35 -32 -12 -21 -29 -30
-70 -40 -82 -18 -139 -59 -171 -122 -24 -50 -26 -61 -26 -196 0 -136 1 -143
20 -143 19 0 20 7 20 135 0 140 10 186 48 228 22 25 78 53 123 61 l35 6 23
-70 c51 -160 180 -360 231 -360 51 0 180 200 231 360 l23 70 35 -6 c45 -8 101
-36 123 -61 38 -42 48 -88 48 -228 0 -128 1 -135 20 -135 19 0 20 7 20 143 0
135 -2 146 -26 196 -32 63 -89 104 -171 122 -41 10 -58 19 -70 40 -9 15 -25
30 -35 32 -25 7 -22 34 7 82 14 22 25 47 25 55 0 9 13 27 29 41 36 32 48 72
32 114 -15 41 -14 55 2 55 20 0 47 33 47 58 0 11 -11 29 -25 40 -14 11 -25 25
-25 31 0 27 -52 110 -92 147 -24 23 -65 49 -91 59 -26 10 -49 26 -52 36 -5 15
-16 19 -55 19 -39 0 -50 -4 -55 -19z m75 -126 c0 -122 -11 -113 140 -118 52
-2 -20 -3 -160 -3 -140 0 -212 1 -160 3 151 5 140 -4 140 118 0 98 1 105 20
105 19 0 20 -7 20 -105z m-80 0 l0 -65 -80 0 c-44 0 -80 3 -80 7 0 20 57 75
102 97 28 14 53 26 55 26 2 0 3 -29 3 -65z m207 24 c29 -18 73 -68 73 -83 0
-3 -36 -6 -80 -6 l-80 0 0 65 0 65 27 -11 c15 -6 42 -19 60 -30z m153 -214 c0
-13 -40 -15 -300 -15 -260 0 -300 2 -300 15 0 13 40 15 300 15 260 0 300 -2
300 -15z m-500 -80 c-7 -8 -19 -15 -26 -15 -8 0 -14 7 -14 15 0 10 10 15 26
15 22 0 25 -2 14 -15z m370 -17 c25 -28 29 -41 29 -88 1 -167 -169 -287 -285
-201 -82 60 -114 116 -114 202 0 41 5 58 28 84 l27 34 143 0 142 1 30 -32z
m70 17 c0 -8 -6 -15 -14 -15 -7 0 -19 7 -26 15 -11 13 -8 15 14 15 16 0 26 -5
26 -15z m-480 -77 c0 -25 -3 -29 -10 -18 -13 20 -13 50 0 50 6 0 10 -15 10
-32z m500 15 c0 -10 -5 -25 -10 -33 -7 -11 -10 -7 -10 18 0 17 5 32 10 32 6 0
10 -8 10 -17z m-352 -288 c30 -16 63 -25 93 -25 30 0 62 9 93 25 55 29 56 29
56 11 0 -8 -34 -42 -75 -76 l-75 -61 -75 61 c-41 34 -75 68 -75 76 0 19 3 18
58 -11z m-22 -82 c40 -32 73 -62 74 -66 0 -11 -42 -46 -55 -46 -17 0 -117 139
-111 154 3 8 8 15 12 15 3 0 39 -26 80 -57z m320 42 c6 -15 -94 -154 -111
-154 -13 0 -55 35 -55 46 1 9 141 122 153 123 4 0 10 -7 13 -15z m-351 -165
c28 -41 51 -50 73 -28 21 21 33 -11 26 -72 -10 -94 -12 -97 -41 -55 -23 35
-93 176 -93 189 0 13 8 4 35 -34z m292 -43 c-19 -41 -46 -91 -60 -112 -29 -42
-31 -39 -41 55 -7 61 5 93 26 72 22 -22 45 -13 73 28 15 22 30 38 32 36 3 -2
-11 -38 -30 -79z m-130 57 c8 -21 -13 -42 -28 -27 -13 13 -5 43 11 43 6 0 13
-7 17 -16z m-3 -165 c9 -93 8 -99 -14 -99 -22 0 -23 6 -14 99 4 33 10 61 14
61 4 0 10 -28 14 -61z"></path>
      <path d="M340 55 c0 -38 3 -45 20 -45 17 0 20 7 20 45 0 38 -3 45 -20 45 -17
0 -20 -7 -20 -45z"></path>
      <path d="M900 55 c0 -38 3 -45 20 -45 17 0 20 7 20 45 0 38 -3 45 -20 45 -17
0 -20 -7 -20 -45z"></path>
    </g>
  </symbol>
    <symbol xmlns="http://www.w3.org/2000/svg" fill="none" stroke-width="1.5" stroke="currentColor" viewBox="0 0 24 24" id="trash">
    <path stroke-linecap="round" stroke-linejoin="round" d="M14.74 9l-.346 9m-4.788 0L9.26 9m9.968-3.21c.342.052.682.107 1.022.166m-1.022-.165L18.16 19.673a2.25 2.25 0 01-2.244 2.077H8.084a2.25 2.25 0 01-2.244-2.077L4.772 5.79m14.456 0a48.108 48.108 0 00-3.478-.397m-12 .562c.34-.059.68-.114 1.022-.165m0 0a48.11 48.11 0 013.478-.397m7.5 0v-.916c0-1.18-.91-2.164-2.09-2.201a51.964 51.964 0 00-3.32 0c-1.18.037-2.09 1.022-2.09 2.201v.916m7.5 0a48.667 48.667 0 00-7.5 0"></path>
  </symbol>
</svg>