<svg xmlns="http://www.w3.org/2000/svg" fill="none" viewBox="0 0 283 64">
    <g transform="translate(0.000000,257.000000) scale(0.100000,-0.100000)" fill="#000000" stroke="none">
      <path d="M1107 2479 c-119 -17 -223 -96 -275 -208 -31 -66 -43 -223 -22 -286
16 -50 73 -111 116 -125 l34 -12 0 -119 c0 -134 11 -173 62 -226 17 -18 47
-38 65 -44 30 -10 33 -14 33 -50 l0 -39 -120 0 -120 0 0 233 c0 212 -2 235
-20 264 -35 58 -36 58 -380 58 -285 0 -319 -2 -343 -18 -55 -36 -58 -52 -56
-353 1 -266 2 -276 24 -320 l23 -46 -24 -35 c-29 -43 -31 -87 -4 -130 27 -44
51 -55 145 -60 l81 -6 28 -261 c31 -294 38 -328 73 -374 26 -34 89 -72 122
-72 44 0 51 -10 51 -74 0 -33 5 -68 10 -76 8 -13 94 -15 670 -15 576 0 662 2
670 15 5 8 10 43 10 76 0 64 7 74 51 74 33 0 96 38 122 72 35 46 42 80 73 374
l28 261 81 6 c94 5 118 16 145 60 25 41 25 83 0 124 -27 45 -52 55 -153 61
l-90 5 29 21 c104 75 144 136 151 231 5 73 -21 132 -80 179 -31 25 -49 31
-100 34 -42 3 -75 -1 -100 -11 -33 -14 -41 -14 -74 0 -25 10 -58 14 -100 11
-51 -3 -69 -9 -100 -34 -59 -47 -85 -106 -80 -179 7 -101 44 -154 172 -245 33
-24 61 -44 63 -45 1 -1 -13 -26 -33 -55 -19 -28 -35 -59 -35 -68 0 -9 -16 11
-36 44 -91 153 -264 264 -411 264 l-43 0 0 44 c0 41 2 45 33 55 66 22 127 111
127 185 0 33 2 35 43 41 54 9 82 27 103 66 13 27 15 64 12 248 -3 209 -4 218
-29 271 -57 118 -156 191 -285 210 -81 11 -255 11 -337 -1z m415 -103 c104
-51 158 -151 158 -290 l0 -84 -82 5 c-46 3 -93 12 -106 20 -23 14 -46 57 -56
105 -8 37 -31 40 -264 36 -158 -2 -194 -6 -202 -18 -5 -8 -10 -61 -10 -118 0
-100 0 -102 -21 -92 -40 22 -59 69 -59 152 0 120 37 199 120 260 60 43 84 47
290 45 167 -2 200 -5 232 -21z m-148 -321 c10 -38 72 -102 112 -115 l34 -12 0
-154 c0 -241 -3 -244 -240 -244 -246 0 -240 -8 -240 320 l0 230 164 0 164 0 6
-25z m300 -151 c3 -9 6 -35 6 -59 0 -63 -7 -75 -46 -75 l-34 0 0 75 0 75 34 0
c22 0 36 -6 40 -16z m-880 -80 c8 -20 8 -418 0 -438 -5 -14 -42 -16 -314 -16
-272 0 -309 2 -314 16 -8 20 -8 418 0 438 5 14 42 16 314 16 272 0 309 -2 314
-16z m1244 -249 c17 -14 35 -25 42 -25 7 0 25 11 42 25 56 47 150 28 184 -36
28 -55 6 -149 -47 -195 -42 -36 -168 -124 -179 -124 -11 0 -137 88 -179 124
-50 44 -75 139 -50 189 34 69 130 90 187 42z m-678 -234 c0 -55 -3 -106 -6
-115 -5 -12 -21 -16 -74 -16 -53 0 -69 4 -74 16 -3 9 -6 60 -6 115 l0 99 80 0
80 0 0 -99z m-560 -96 l0 -35 -283 0 c-301 0 -311 1 -337 51 -11 19 -5 19 305
19 l315 0 0 -35z m300 16 c-21 -40 -51 -51 -137 -51 l-83 0 0 35 0 35 115 0
c112 0 115 -1 105 -19z m535 -25 c115 -57 198 -160 230 -285 17 -63 16 -73
-11 -168 l-15 -51 -110 -4 c-84 -2 -112 -7 -119 -18 -5 -8 -10 -80 -10 -160 0
-132 2 -150 23 -190 36 -71 82 -101 177 -114 l80 -10 0 -33 0 -33 -600 0 -600
0 0 33 0 33 80 10 c95 13 141 43 178 114 20 40 22 58 22 190 0 80 -5 152 -10
160 -7 11 -35 16 -119 18 l-110 4 -15 51 c-8 29 -18 64 -21 79 -9 37 20 144
57 206 l32 52 102 0 c120 0 196 13 232 39 27 19 27 19 54 -4 43 -37 163 -44
221 -13 28 14 57 69 57 107 l0 34 61 -6 c42 -4 85 -17 134 -41z m-1121 -148
c29 -29 40 -61 105 -293 114 -404 107 -385 141 -385 42 0 45 25 15 126 -14 49
-25 92 -25 96 0 4 29 8 65 8 l65 0 0 -110 c0 -119 -10 -155 -52 -184 -28 -20
-262 -23 -302 -4 -51 22 -57 45 -92 357 -18 163 -36 306 -39 317 -6 28 -31 34
-136 34 -92 0 -107 8 -94 51 6 17 19 19 162 19 l155 0 32 -32z m143 -8 c-12
-22 -24 -34 -26 -27 -2 7 -10 24 -18 40 l-14 27 40 0 39 0 -21 -40z m1737 24
c4 -9 4 -25 1 -35 -6 -17 -17 -19 -93 -19 -106 0 -131 -6 -137 -34 -3 -11 -21
-154 -39 -317 -35 -312 -41 -335 -92 -357 -40 -19 -274 -16 -302 4 -42 29 -52
65 -52 184 l0 110 65 0 c36 0 65 -4 65 -8 0 -4 -11 -47 -25 -96 -30 -101 -27
-126 15 -126 34 0 27 -19 141 385 65 232 76 264 105 293 l32 32 155 0 c134 0
156 -2 161 -16z"></path>
      <path d="M1125 1901 c-9 -30 5 -51 35 -51 30 0 44 21 35 51 -4 13 -16 19 -35
19 -19 0 -31 -6 -35 -19z"></path>
      <path d="M1365 1901 c-9 -30 5 -51 35 -51 30 0 44 21 35 51 -4 13 -16 19 -35
19 -19 0 -31 -6 -35 -19z"></path>
      <path d="M1124 1736 c-8 -34 14 -76 55 -103 27 -18 48 -23 101 -23 53 0 74 5
101 23 66 44 79 127 19 127 -23 0 -31 -5 -36 -25 -8 -32 -32 -45 -84 -45 -52
0 -76 13 -84 45 -5 20 -13 25 -36 25 -23 0 -31 -5 -36 -24z"></path>
      <path d="M412 1704 c-28 -19 -52 -65 -52 -99 0 -34 24 -80 52 -99 12 -9 43
-16 68 -16 52 0 83 18 105 60 19 37 19 73 0 110 -22 42 -53 60 -105 60 -25 0
-56 -7 -68 -16z m103 -83 c9 -30 -5 -51 -35 -51 -30 0 -44 21 -35 51 4 13 16
19 35 19 19 0 31 -6 35 -19z"></path>
      <path d="M1070 1043 c-8 -3 -18 -11 -22 -17 -11 -16 -9 -268 2 -286 8 -13 45
-15 230 -15 185 0 222 2 230 15 13 20 13 270 0 290 -8 12 -45 15 -217 17 -114
1 -215 -1 -223 -4z m370 -158 l0 -75 -160 0 -160 0 0 75 0 75 160 0 160 0 0
-75z"></path>
      <path d="M2132 2065 c-52 -38 -66 -109 -32 -175 31 -60 121 -120 180 -120 59
0 149 60 180 120 25 49 25 96 0 137 -27 45 -53 56 -114 49 -62 -7 -67 -7 -136
0 -41 4 -61 1 -78 -11z m108 -100 c10 -29 16 -35 40 -35 24 0 30 6 40 35 10
29 16 35 41 35 22 0 30 -6 35 -24 9 -36 -20 -80 -70 -107 l-46 -24 -46 24
c-50 27 -79 71 -70 107 5 18 13 24 35 24 25 0 31 -6 41 -35z"></path>
    </g>
</svg>