<svg xmlns="http://www.w3.org/2000/svg" fill="none" viewBox="0 0 283 64">
    <g transform="translate(0.000000,257.000000) scale(0.100000,-0.100000)" fill="#000000" stroke="none">
      <path d="M1142 2348 c-17 -17 -16 -212 1 -226 6 -6 26 -12 42 -14 28 -3 30 -6
33 -51 2 -32 -1 -48 -10 -51 -119 -35 -198 -65 -251 -96 -47 -27 -68 -35 -76
-27 -16 16 -13 30 9 50 29 24 25 44 -17 96 -53 64 -71 81 -87 81 -15 0 -206
-154 -219 -177 -10 -16 6 -44 62 -110 38 -46 62 -53 98 -28 18 13 22 13 33 0
13 -16 9 -24 -51 -93 l-36 -42 -104 0 c-57 0 -109 -4 -115 -8 -17 -11 -22 -35
-12 -54 7 -15 23 -18 94 -18 65 0 85 -3 81 -12 -3 -7 -15 -37 -27 -65 l-23
-53 -131 0 c-136 0 -156 -5 -156 -42 0 -29 34 -38 150 -38 l112 0 -5 -32 c-3
-18 -9 -54 -13 -80 l-6 -48 -183 0 c-154 0 -186 -3 -199 -16 -19 -18 -19 -20
-6 -45 10 -18 23 -19 199 -19 l188 0 15 -92 c9 -51 19 -101 23 -110 6 -16 -5
-18 -125 -20 -114 -3 -134 -6 -144 -20 -8 -13 -8 -23 0 -35 10 -15 32 -19 157
-23 l147 -5 44 -77 44 -78 -68 0 c-91 0 -127 -33 -82 -73 15 -14 40 -17 120
-17 l102 0 71 -59 c87 -73 223 -145 324 -171 42 -11 124 -22 183 -26 83 -5
118 -12 157 -30 78 -37 153 -47 330 -42 125 4 167 8 192 21 43 23 65 58 62 99
-1 18 5 48 15 67 12 23 17 47 13 72 -3 25 0 42 10 52 9 9 18 38 21 66 l5 51
129 0 c124 0 130 1 153 25 35 35 36 121 1 162 l-24 28 -279 5 -278 5 40 24
c119 71 158 169 95 233 -27 26 -36 29 -73 25 -40 -4 -173 -57 -282 -112 -27
-14 -80 -50 -117 -80 l-67 -54 -82 -3 c-65 -2 -84 -7 -93 -20 -23 -36 4 -52
101 -62 l90 -8 91 71 c87 69 104 78 360 188 20 9 14 -42 -8 -62 -11 -10 -41
-32 -68 -49 -53 -35 -85 -87 -73 -119 5 -12 20 -31 35 -42 26 -19 42 -20 299
-21 l272 0 3 -27 3 -27 -209 0 c-190 0 -210 -2 -225 -18 -38 -41 -11 -74 67
-82 43 -4 51 -8 51 -25 0 -18 -8 -21 -70 -25 -81 -6 -95 -12 -95 -45 0 -31 26
-45 84 -45 42 0 46 -2 46 -25 0 -25 -1 -25 -79 -25 -59 0 -84 -4 -95 -16 -39
-39 1 -74 86 -74 61 0 77 -10 51 -31 -12 -11 -55 -14 -172 -14 -189 0 -237 7
-293 45 -41 28 -48 30 -149 30 -173 0 -308 45 -451 150 -129 95 -246 274 -284
435 -23 99 -20 259 6 360 121 475 644 713 1085 496 145 -72 265 -192 340 -342
42 -83 62 -151 77 -268 14 -101 30 -127 66 -105 14 10 17 26 16 93 -2 176 -81
357 -230 532 -12 13 -12 18 0 35 14 18 15 18 33 1 36 -32 64 -22 116 42 26 32
47 68 47 79 0 25 -193 192 -221 192 -22 0 -119 -119 -119 -147 0 -12 9 -28 21
-36 17 -13 19 -19 10 -36 -14 -26 -16 -26 -49 -2 -50 35 -131 71 -214 95 l-83
24 -3 51 -3 51 33 0 c19 0 39 5 46 12 16 16 16 210 0 226 -17 17 -439 17 -456
0z m388 -113 l0 -55 -162 2 -163 3 -3 39 c-6 68 -10 66 168 66 l160 0 0 -55z
m-80 -170 l0 -45 -80 0 -80 0 0 45 0 45 80 0 80 0 0 -45z m-651 -79 c16 -20
-95 -112 -115 -95 -21 17 -18 22 37 67 57 46 62 48 78 28z m1226 -27 c58 -48
61 -52 41 -69 -13 -10 -25 -4 -71 35 -44 38 -53 50 -44 61 16 20 19 19 74 -27z"></path>
      <path d="M1225 1856 c-505 -116 -720 -698 -412 -1113 56 -75 148 -153 229
-194 63 -32 95 -34 111 -8 17 27 1 46 -75 85 -216 114 -352 371 -320 609 19
147 72 260 168 360 133 140 336 212 522 185 147 -21 257 -76 362 -180 74 -75
125 -162 156 -270 23 -80 42 -102 71 -84 26 17 21 95 -12 177 -80 199 -240
349 -440 413 -99 32 -267 41 -360 20z"></path>
      <path d="M1348 1649 c-16 -9 -18 -29 -18 -188 l0 -177 -29 -22 c-59 -44 -62
-130 -5 -183 39 -37 112 -34 153 5 55 53 49 141 -14 182 l-25 16 0 179 c0 166
-1 179 -19 189 -23 12 -22 12 -43 -1z m47 -479 c0 -18 -6 -26 -23 -28 -13 -2
-25 3 -28 12 -10 26 4 48 28 44 17 -2 23 -10 23 -28z"></path>
    </g>
</svg>