<svg xmlns="http://www.w3.org/2000/svg" fill="none" viewBox="0 0 283 64">
    <g transform="translate(0.000000,257.000000) scale(0.100000,-0.100000)" fill="#000000" stroke="none">
      <path d="M1158 2541 c-120 -39 -202 -113 -255 -227 -25 -53 -28 -73 -31 -186
l-4 -127 -40 -6 c-23 -4 -54 -20 -74 -37 l-35 -31 -67 25 -67 25 -52 91 -51
91 20 40 c28 56 18 103 -32 153 -31 32 -44 38 -79 38 -50 0 -91 -20 -120 -56
-41 -52 -19 -163 39 -194 11 -6 40 -14 63 -18 40 -7 43 -10 98 -107 l56 -100
87 -34 86 -33 0 -44 0 -44 -102 0 -102 0 -37 36 c-32 32 -36 39 -29 69 8 37
-8 95 -36 126 -47 52 -149 46 -198 -11 -37 -45 -43 -90 -17 -142 28 -59 67
-81 135 -76 51 3 56 1 99 -39 l47 -43 120 0 120 0 0 -70 0 -70 -133 0 -133 0
-22 30 c-54 72 -151 80 -209 17 -42 -46 -51 -94 -27 -144 51 -102 187 -109
242 -13 l17 30 130 -2 130 -3 3 -72 3 -73 -121 0 -120 0 -47 -42 c-43 -41 -48
-43 -99 -40 -67 5 -107 -17 -135 -75 -51 -105 47 -218 159 -185 21 7 47 21 56
31 28 31 44 89 36 126 -7 30 -3 37 29 69 l37 36 102 0 102 0 0 -48 0 -47 -87
-30 -86 -30 -56 -100 c-55 -97 -58 -100 -96 -106 -82 -11 -125 -60 -125 -140
0 -118 146 -174 227 -86 43 48 51 95 25 148 l-20 40 51 92 52 91 70 22 70 22
26 -24 c39 -37 79 -44 246 -44 l153 0 0 -95 c0 -52 -2 -95 -5 -95 -2 0 -29 31
-60 70 -63 78 -96 100 -154 100 -74 0 -129 -75 -112 -152 12 -50 80 -187 172
-343 121 -206 132 -234 137 -340 2 -50 8 -98 14 -107 8 -17 35 -18 338 -18
180 0 335 3 344 6 12 5 16 20 16 64 0 45 8 74 34 131 47 100 67 205 73 389 4
140 3 158 -14 189 -26 47 -77 73 -129 68 -37 -4 -43 -1 -58 23 -21 37 -79 64
-125 57 -32 -4 -39 -1 -53 23 l-16 28 99 4 c91 3 102 6 143 35 l45 32 68 -23
68 -23 52 -91 51 -91 -20 -40 c-26 -53 -18 -100 25 -148 81 -88 227 -32 227
86 0 80 -43 129 -125 140 -38 6 -41 9 -96 106 l-56 100 -86 30 -87 30 0 47 0
48 102 0 102 0 37 -36 c32 -32 36 -39 29 -69 -8 -37 8 -95 36 -126 9 -10 35
-24 56 -31 112 -33 210 80 159 185 -28 58 -68 80 -135 75 -51 -3 -56 -1 -99
40 l-47 42 -120 0 -120 0 0 75 0 75 133 0 132 0 17 -30 c55 -96 191 -89 242
13 24 50 15 98 -27 144 -58 63 -155 55 -209 -17 l-22 -30 -133 0 -133 0 0 70
0 70 120 0 121 0 47 44 c45 42 49 44 96 39 65 -8 109 16 136 73 37 76 0 161
-81 185 -46 14 -105 1 -133 -30 -28 -31 -44 -89 -36 -126 7 -30 3 -37 -29 -69
l-37 -36 -102 0 -102 0 0 44 0 44 86 33 87 34 56 100 c55 97 58 100 98 107 23
4 52 12 63 18 58 31 80 142 39 194 -29 36 -70 56 -120 56 -35 0 -48 -6 -79
-38 -50 -50 -60 -97 -32 -153 l20 -40 -51 -91 -52 -91 -67 -25 -67 -24 -31 26
c-18 14 -52 31 -76 37 l-44 11 0 72 c0 222 -75 363 -235 442 -94 46 -205 56
-297 25z m267 -100 c64 -32 115 -82 148 -146 21 -43 37 -136 37 -222 l0 -73
-50 0 -50 0 0 91 c0 51 -5 109 -12 130 -15 52 -73 117 -122 140 -57 26 -148
25 -203 -2 -90 -44 -133 -132 -133 -276 l0 -83 -46 0 -46 0 4 123 c3 103 7
129 27 167 88 171 276 235 446 151z m-1001 -153 c21 -30 20 -44 -4 -68 -24
-24 -53 -26 -74 -4 -19 18 -21 65 -4 82 20 20 65 14 82 -10z m1794 10 c17 -17
15 -64 -4 -82 -21 -22 -50 -20 -74 4 -24 24 -25 38 -4 68 17 24 62 30 82 10z
m-858 -20 c54 -38 70 -79 70 -185 l0 -93 -155 0 -155 0 0 87 c0 102 22 159 73
192 45 29 123 28 167 -1z m-1034 -336 c6 -4 16 -16 22 -28 28 -54 -57 -103
-92 -52 -21 30 -20 44 4 68 21 21 47 25 66 12z m1974 -12 c24 -24 25 -38 4
-68 -18 -26 -65 -30 -84 -7 -18 22 -15 66 6 82 25 19 51 16 74 -7z m-549 -39
l29 -29 0 -367 0 -367 -29 -29 -29 -29 -156 0 -156 0 0 154 c0 85 -5 167 -10
182 -9 22 -7 31 8 48 48 53 59 133 27 200 -47 98 -189 126 -272 53 -76 -67
-84 -171 -19 -257 8 -10 9 -70 6 -195 l-5 -180 -161 0 c-145 0 -164 2 -183 19
-21 19 -21 26 -21 401 0 351 1 383 18 397 9 9 24 18 32 21 8 3 212 6 453 6
l439 1 29 -29z m-412 -248 c38 -36 45 -70 23 -113 -17 -34 -17 -34 -85 -33
-79 2 -96 15 -97 76 0 29 7 45 29 68 40 39 89 40 130 2z m-1005 -106 c11 -8
19 -26 19 -42 0 -57 -74 -74 -102 -24 -29 53 34 102 83 66z m1973 -13 c15 -24
15 -29 2 -53 -28 -50 -101 -33 -101 24 0 55 68 75 99 29z m-993 -126 c14 -19
16 -71 16 -365 l0 -343 27 -6 c43 -11 53 15 53 131 0 106 7 125 45 125 45 0
50 -12 55 -152 5 -130 6 -133 28 -136 42 -6 52 14 52 102 0 87 8 106 45 106
40 0 54 -29 57 -120 3 -83 4 -85 29 -88 34 -4 47 14 51 68 3 38 7 46 30 54 22
8 32 6 48 -9 17 -16 20 -30 20 -114 0 -53 -5 -136 -11 -186 -10 -88 -50 -227
-71 -252 -8 -10 -74 -13 -296 -11 l-284 3 -19 60 c-10 33 -38 94 -62 135 -153
264 -182 317 -208 380 -32 75 -28 110 11 110 35 0 48 -12 141 -131 96 -124
125 -143 149 -100 6 13 10 150 10 378 0 266 3 362 12 371 19 19 55 14 72 -10z
m-968 -277 c25 -49 -26 -98 -74 -72 -30 16 -37 48 -17 77 22 33 74 31 91 -5z
m1960 4 c28 -44 -9 -94 -61 -81 -24 6 -41 38 -36 66 9 46 70 56 97 15z m-1877
-366 c13 -24 13 -29 -2 -53 -19 -28 -63 -36 -85 -14 -18 18 -15 75 6 87 28 18
65 8 81 -20z m1782 21 c23 -13 26 -71 5 -89 -24 -20 -69 -9 -85 20 -13 24 -13
29 2 53 18 27 45 33 78 16z m-451 -675 c0 -13 -37 -15 -275 -15 -238 0 -275 2
-275 15 0 13 37 15 275 15 238 0 275 -2 275 -15z"></path>
    </g>
</svg>