<svg width="471" height="38" viewBox="0 0 471 38" fill="none" xmlns="http://www.w3.org/2000/svg">
<path d="M17.76 6.51021H7.08V28.4702H0.2V0.470213H24.64V28.4702H17.76V6.51021ZM36.2194 37.2702H30.1794V10.0702H36.2194V37.2702ZM51.2594 19.2702C51.2594 21.4035 50.8327 23.2035 49.9794 24.6702C49.1527 26.1369 48.0727 27.2435 46.7394 27.9902C45.4327 28.7369 44.0194 29.1102 42.4994 29.1102C40.8994 29.1102 39.5127 28.7102 38.3394 27.9102C37.1927 27.0835 36.3127 25.9369 35.6994 24.4702C35.086 22.9769 34.7794 21.2435 34.7794 19.2702C34.7794 17.2702 35.086 15.5369 35.6994 14.0702C36.3127 12.6035 37.1927 11.4702 38.3394 10.6702C39.5127 9.84355 40.8994 9.43021 42.4994 9.43021C44.0194 9.43021 45.4327 9.80355 46.7394 10.5502C48.0727 11.2969 49.1527 12.4035 49.9794 13.8702C50.8327 15.3102 51.2594 17.1102 51.2594 19.2702ZM44.8994 19.2702C44.8994 18.3102 44.6994 17.4969 44.2994 16.8302C43.8994 16.1635 43.366 15.6569 42.6994 15.3102C42.0327 14.9635 41.2994 14.7902 40.4994 14.7902C39.806 14.7902 39.126 14.9635 38.4594 15.3102C37.8194 15.6302 37.286 16.1235 36.8594 16.7902C36.4327 17.4569 36.2194 18.2835 36.2194 19.2702C36.2194 20.2569 36.4327 21.0835 36.8594 21.7502C37.286 22.4169 37.8194 22.9235 38.4594 23.2702C39.126 23.5902 39.806 23.7502 40.4994 23.7502C41.2994 23.7502 42.0327 23.5769 42.6994 23.2302C43.366 22.8835 43.8994 22.3769 44.2994 21.7102C44.6994 21.0435 44.8994 20.2302 44.8994 19.2702ZM73.5469 15.2702L54.9869 29.8702L55.1869 23.2702L73.7469 8.67021L73.5469 15.2702ZM60.8269 10.0702V24.2302L54.9869 29.8702V10.0702H60.8269ZM73.7469 8.67021V28.4702H67.9469V14.3102L73.7469 8.67021ZM83.6588 19.2702C83.6588 20.2569 83.8721 21.1102 84.2988 21.8302C84.7254 22.5235 85.3121 23.0702 86.0588 23.4702C86.8321 23.8702 87.6588 24.0702 88.5388 24.0702C89.2854 24.0702 89.9921 23.9635 90.6588 23.7502C91.3521 23.5102 91.9788 23.1902 92.5388 22.7902C93.1254 22.3902 93.6054 21.8969 93.9788 21.3102V27.1902C93.3388 27.6969 92.5388 28.1102 91.5788 28.4302C90.6188 28.7235 89.4454 28.8702 88.0588 28.8702C86.0321 28.8702 84.2054 28.4702 82.5788 27.6702C80.9788 26.8702 79.7121 25.7502 78.7788 24.3102C77.8721 22.8702 77.4188 21.1902 77.4188 19.2702C77.4188 17.3235 77.8721 15.6435 78.7788 14.2302C79.7121 12.7902 80.9788 11.6702 82.5788 10.8702C84.2054 10.0702 86.0321 9.67021 88.0588 9.67021C89.4454 9.67021 90.6188 9.83021 91.5788 10.1502C92.5388 10.4435 93.3388 10.8169 93.9788 11.2702V17.1902C93.6054 16.6035 93.1121 16.1102 92.4988 15.7102C91.9121 15.3102 91.2721 15.0035 90.5788 14.7902C89.8854 14.5769 89.2054 14.4702 88.5388 14.4702C87.6588 14.4702 86.8321 14.6835 86.0588 15.1102C85.3121 15.5369 84.7254 16.1102 84.2988 16.8302C83.8721 17.5502 83.6588 18.3635 83.6588 19.2702ZM97.2644 19.2702C97.2644 17.3235 97.7177 15.6302 98.6244 14.1902C99.531 12.7502 100.784 11.6302 102.384 10.8302C103.984 10.0302 105.784 9.63021 107.784 9.63021C109.784 9.63021 111.571 10.0302 113.144 10.8302C114.744 11.6302 115.998 12.7502 116.904 14.1902C117.838 15.6302 118.304 17.3235 118.304 19.2702C118.304 21.1902 117.838 22.8702 116.904 24.3102C115.998 25.7502 114.744 26.8702 113.144 27.6702C111.571 28.4702 109.784 28.8702 107.784 28.8702C105.784 28.8702 103.984 28.4702 102.384 27.6702C100.784 26.8702 99.531 25.7502 98.6244 24.3102C97.7177 22.8702 97.2644 21.1902 97.2644 19.2702ZM103.464 19.2702C103.464 20.2302 103.664 21.0569 104.064 21.7502C104.464 22.4169 104.984 22.9369 105.624 23.3102C106.264 23.6835 106.984 23.8702 107.784 23.8702C108.558 23.8702 109.264 23.6835 109.904 23.3102C110.571 22.9369 111.091 22.4169 111.464 21.7502C111.864 21.0569 112.064 20.2302 112.064 19.2702C112.064 18.3102 111.864 17.4835 111.464 16.7902C111.091 16.0969 110.571 15.5635 109.904 15.1902C109.264 14.8169 108.558 14.6302 107.784 14.6302C106.984 14.6302 106.264 14.8169 105.624 15.1902C104.984 15.5635 104.464 16.0969 104.064 16.7902C103.664 17.4835 103.464 18.3102 103.464 19.2702ZM124.258 20.5502V17.1902H134.658C134.551 16.4435 134.351 15.8169 134.058 15.3102C133.791 14.8035 133.405 14.4169 132.898 14.1502C132.418 13.8569 131.818 13.7102 131.098 13.7102C130.271 13.7102 129.551 13.8969 128.938 14.2702C128.351 14.6169 127.885 15.1369 127.538 15.8302C127.191 16.4969 127.018 17.3235 127.018 18.3102L126.938 19.2702C126.938 20.5235 127.125 21.5369 127.498 22.3102C127.898 23.0835 128.418 23.6435 129.058 23.9902C129.725 24.3369 130.445 24.5102 131.218 24.5102C131.965 24.5102 132.618 24.4169 133.178 24.2302C133.765 24.0435 134.271 23.7769 134.698 23.4302C135.125 23.0569 135.485 22.6169 135.778 22.1102L141.178 23.4302C140.565 24.5502 139.831 25.5235 138.978 26.3502C138.125 27.1502 137.071 27.7769 135.818 28.2302C134.591 28.6569 133.085 28.8702 131.298 28.8702C129.085 28.8702 127.191 28.4569 125.618 27.6302C124.071 26.8035 122.885 25.6702 122.058 24.2302C121.258 22.7635 120.858 21.1102 120.858 19.2702C120.858 18.9235 120.871 18.5902 120.898 18.2702C120.925 17.9502 120.965 17.6302 121.018 17.3102C121.285 15.7902 121.831 14.4569 122.658 13.3102C123.511 12.1635 124.645 11.2702 126.058 10.6302C127.498 9.99021 129.218 9.67021 131.218 9.67021C133.378 9.67021 135.191 10.0435 136.658 10.7902C138.125 11.5369 139.231 12.6035 139.978 13.9902C140.751 15.3769 141.138 17.0435 141.138 18.9902C141.138 19.1502 141.138 19.3769 141.138 19.6702C141.138 19.9369 141.111 20.2302 141.058 20.5502H124.258ZM154.594 17.3502L150.194 27.2702L144.354 26.0302L154.594 8.67021L164.834 26.0302L158.994 27.2702L154.594 17.3502ZM161.314 28.4702H148.074V32.0702H142.194V23.7102H166.994V32.0702H161.314V28.4702ZM189.797 15.2702L171.237 29.8702L171.437 23.2702L189.997 8.67021L189.797 15.2702ZM177.077 10.0702V24.2302L171.237 29.8702V10.0702H177.077ZM189.997 8.67021V28.4702H184.197V14.3102L189.997 8.67021ZM196.709 21.0302V16.5102H211.589V21.0302H196.709ZM208.869 10.0702H214.669V28.4702H208.869V10.0702ZM194.829 10.0702H200.669V28.4702H194.829V10.0702ZM224.958 28.4702H218.718L224.238 20.1102H229.998L224.958 28.4702ZM237.238 28.4702H231.198V10.0702H237.238V28.4702ZM233.278 17.8302V21.8702H227.558C226.305 21.8702 225.091 21.6569 223.918 21.2302C222.771 20.8035 221.838 20.1502 221.118 19.2702C220.425 18.3635 220.078 17.2169 220.078 15.8302C220.078 14.4169 220.425 13.2969 221.118 12.4702C221.838 11.6435 222.771 11.0435 223.918 10.6702C225.091 10.2702 226.305 10.0702 227.558 10.0702H233.278V14.8702H228.398C227.891 14.8702 227.451 14.9235 227.078 15.0302C226.731 15.1102 226.465 15.2569 226.278 15.4702C226.091 15.6835 225.998 15.9769 225.998 16.3502C225.998 16.6969 226.091 16.9902 226.278 17.2302C226.465 17.4435 226.731 17.6035 227.078 17.7102C227.451 17.7902 227.891 17.8302 228.398 17.8302H233.278ZM259.875 15.2702L241.315 29.8702L241.515 23.2702L260.075 8.67021L259.875 15.2702ZM247.155 10.0702V24.2302L241.315 29.8702V10.0702H247.155ZM260.075 8.67021V28.4702H254.275V14.3102L260.075 8.67021ZM244.435 0.670213H248.395C248.395 1.12355 248.502 1.53688 248.715 1.91021C248.928 2.25688 249.235 2.53688 249.635 2.75021C250.035 2.93688 250.488 3.03021 250.995 3.03021C251.502 3.03021 251.955 2.93688 252.355 2.75021C252.755 2.53688 253.062 2.25688 253.275 1.91021C253.488 1.53688 253.595 1.12355 253.595 0.670213H257.555C257.555 1.73688 257.302 2.72355 256.795 3.63021C256.288 4.51021 255.542 5.21688 254.555 5.75021C253.595 6.25688 252.408 6.51021 250.995 6.51021C249.608 6.51021 248.422 6.25688 247.435 5.75021C246.448 5.21688 245.702 4.51021 245.195 3.63021C244.688 2.72355 244.435 1.73688 244.435 0.670213ZM262.747 10.0702H275.667V15.0702H262.747V10.0702ZM266.307 10.8702H272.107V28.4702H266.307V10.8702ZM279.961 20.5502V17.1902H290.361C290.255 16.4435 290.055 15.8169 289.761 15.3102C289.495 14.8035 289.108 14.4169 288.601 14.1502C288.121 13.8569 287.521 13.7102 286.801 13.7102C285.975 13.7102 285.255 13.8969 284.641 14.2702C284.055 14.6169 283.588 15.1369 283.241 15.8302C282.895 16.4969 282.721 17.3235 282.721 18.3102L282.641 19.2702C282.641 20.5235 282.828 21.5369 283.201 22.3102C283.601 23.0835 284.121 23.6435 284.761 23.9902C285.428 24.3369 286.148 24.5102 286.921 24.5102C287.668 24.5102 288.321 24.4169 288.881 24.2302C289.468 24.0435 289.975 23.7769 290.401 23.4302C290.828 23.0569 291.188 22.6169 291.481 22.1102L296.881 23.4302C296.268 24.5502 295.535 25.5235 294.681 26.3502C293.828 27.1502 292.775 27.7769 291.521 28.2302C290.295 28.6569 288.788 28.8702 287.001 28.8702C284.788 28.8702 282.895 28.4569 281.321 27.6302C279.775 26.8035 278.588 25.6702 277.761 24.2302C276.961 22.7635 276.561 21.1102 276.561 19.2702C276.561 18.9235 276.575 18.5902 276.601 18.2702C276.628 17.9502 276.668 17.6302 276.721 17.3102C276.988 15.7902 277.535 14.4569 278.361 13.3102C279.215 12.1635 280.348 11.2702 281.761 10.6302C283.201 9.99021 284.921 9.67021 286.921 9.67021C289.081 9.67021 290.895 10.0435 292.361 10.7902C293.828 11.5369 294.935 12.6035 295.681 13.9902C296.455 15.3769 296.841 17.0435 296.841 18.9902C296.841 19.1502 296.841 19.3769 296.841 19.6702C296.841 19.9369 296.815 20.2302 296.761 20.5502H279.961ZM305.729 19.2702C305.729 20.2569 305.942 21.1102 306.369 21.8302C306.796 22.5235 307.382 23.0702 308.129 23.4702C308.902 23.8702 309.729 24.0702 310.609 24.0702C311.356 24.0702 312.062 23.9635 312.729 23.7502C313.422 23.5102 314.049 23.1902 314.609 22.7902C315.196 22.3902 315.676 21.8969 316.049 21.3102V27.1902C315.409 27.6969 314.609 28.1102 313.649 28.4302C312.689 28.7235 311.516 28.8702 310.129 28.8702C308.102 28.8702 306.276 28.4702 304.649 27.6702C303.049 26.8702 301.782 25.7502 300.849 24.3102C299.942 22.8702 299.489 21.1902 299.489 19.2702C299.489 17.3235 299.942 15.6435 300.849 14.2302C301.782 12.7902 303.049 11.6702 304.649 10.8702C306.276 10.0702 308.102 9.67021 310.129 9.67021C311.516 9.67021 312.689 9.83021 313.649 10.1502C314.609 10.4435 315.409 10.8169 316.049 11.2702V17.1902C315.676 16.6035 315.182 16.1102 314.569 15.7102C313.982 15.3102 313.342 15.0035 312.649 14.7902C311.956 14.5769 311.276 14.4702 310.609 14.4702C309.729 14.4702 308.902 14.6835 308.129 15.1102C307.382 15.5369 306.796 16.1102 306.369 16.8302C305.942 17.5502 305.729 18.3635 305.729 19.2702ZM320.695 10.0702H326.735V28.4702H320.695V10.0702ZM325.415 20.1902V16.2702H331.135C333.028 16.2702 334.615 16.7369 335.895 17.6702C337.201 18.5769 337.855 20.0169 337.855 21.9902C337.855 23.2969 337.561 24.4435 336.975 25.4302C336.388 26.4169 335.588 27.1769 334.575 27.7102C333.561 28.2169 332.415 28.4702 331.135 28.4702H325.415V23.7902H330.055C330.508 23.7902 330.881 23.7235 331.175 23.5902C331.495 23.4569 331.735 23.2569 331.895 22.9902C332.081 22.6969 332.175 22.3635 332.175 21.9902C332.175 21.4569 331.988 21.0302 331.615 20.7102C331.268 20.3635 330.748 20.1902 330.055 20.1902H325.415ZM354.164 10.0702H359.964V28.4702H354.164V10.0702ZM366.644 10.0702H373.884L366.004 17.6702L374.684 28.4702H367.564L358.764 17.6702L366.644 10.0702ZM391.162 21.0302V16.5102H406.042V21.0302H391.162ZM403.322 10.0702H409.122V28.4702H403.322V10.0702ZM389.282 10.0702H395.122V28.4702H389.282V10.0702ZM418.571 22.9902C418.571 23.4169 418.691 23.7769 418.931 24.0702C419.171 24.3369 419.491 24.5502 419.891 24.7102C420.318 24.8435 420.758 24.9102 421.211 24.9102C421.958 24.9102 422.638 24.7902 423.251 24.5502C423.891 24.3102 424.398 23.9102 424.771 23.3502C425.145 22.7902 425.331 22.0169 425.331 21.0302L425.971 23.2702C425.971 24.4435 425.665 25.4569 425.051 26.3102C424.465 27.1369 423.651 27.7769 422.611 28.2302C421.598 28.6569 420.451 28.8702 419.171 28.8702C417.891 28.8702 416.745 28.6569 415.731 28.2302C414.718 27.7769 413.918 27.1369 413.331 26.3102C412.771 25.4569 412.491 24.4302 412.491 23.2302C412.491 22.0035 412.811 20.9502 413.451 20.0702C414.118 19.1902 415.051 18.5102 416.251 18.0302C417.451 17.5502 418.851 17.3102 420.451 17.3102C421.385 17.3102 422.265 17.4169 423.091 17.6302C423.945 17.8169 424.678 18.0702 425.291 18.3902C425.931 18.6835 426.385 18.9769 426.651 19.2702V22.1102C425.958 21.6035 425.238 21.2302 424.491 20.9902C423.771 20.7235 422.891 20.5902 421.851 20.5902C421.158 20.5902 420.558 20.6969 420.051 20.9102C419.571 21.0969 419.198 21.3635 418.931 21.7102C418.691 22.0569 418.571 22.4835 418.571 22.9902ZM416.211 15.7502L414.171 11.6702C415.211 11.1635 416.451 10.6835 417.891 10.2302C419.358 9.77688 420.918 9.55021 422.571 9.55021C424.225 9.55021 425.691 9.79021 426.971 10.2702C428.278 10.7235 429.291 11.3902 430.011 12.2702C430.758 13.1502 431.131 14.2302 431.131 15.5102V28.4702H425.331V16.7102C425.331 15.9369 425.038 15.3235 424.451 14.8702C423.891 14.3902 423.105 14.1502 422.091 14.1502C421.211 14.1502 420.371 14.2435 419.571 14.4302C418.798 14.6169 418.118 14.8435 417.531 15.1102C416.945 15.3502 416.505 15.5635 416.211 15.7502ZM453.289 28.4702L450.769 15.8702L453.809 8.67021L459.369 28.4702H453.289ZM445.169 23.2302L453.809 8.67021L454.209 16.8302L446.369 29.7102L445.169 23.2302ZM446.369 29.7102L438.649 16.8302L439.049 8.67021L447.569 23.2302L446.369 29.7102ZM433.489 28.4702L439.049 8.67021L442.089 15.8702L439.569 28.4702H433.489ZM462.698 0.470213H470.178L468.898 19.2302H464.018L462.698 0.470213ZM462.698 25.9902C462.698 24.9769 463.045 24.1502 463.738 23.5102C464.458 22.8702 465.365 22.5502 466.458 22.5502C467.551 22.5502 468.445 22.8702 469.138 23.5102C469.858 24.1502 470.218 24.9769 470.218 25.9902C470.218 27.0035 469.858 27.8302 469.138 28.4702C468.445 29.1102 467.551 29.4302 466.458 29.4302C465.365 29.4302 464.458 29.1102 463.738 28.4702C463.045 27.8302 462.698 27.0035 462.698 25.9902Z" fill="black"/>
</svg>
